<svg id="圖層_1" data-name="圖層 1" xmlns="http://www.w3.org/2000/svg" viewBox="0 0 28.25 28.25"><defs><style>.cls-1{fill:#fff;}</style></defs><path class="cls-1" d="M14.13,0A14.13,14.13,0,1,0,28.25,14.13,14.12,14.12,0,0,0,14.13,0Zm7.45,20.61-1.13,1.13a2.1,2.1,0,0,1-.81.33A13.35,13.35,0,0,1,6.18,8.58a2.08,2.08,0,0,1,.33-.78L7.64,6.67a1.91,1.91,0,0,1,1.77-.42l.24.08A2.27,2.27,0,0,1,10.94,7.7l.57,2.09A2.06,2.06,0,0,1,11,11.57l-.76.76A8,8,0,0,0,15.92,18l.76-.75a2,2,0,0,1,1.79-.47l2.09.57a2.22,2.22,0,0,1,1.36,1.29l.08.24A1.89,1.89,0,0,1,21.58,20.61Z"/></svg>