<svg id="圖層_1" data-name="圖層 1" xmlns="http://www.w3.org/2000/svg" viewBox="0 0 28.39 28.38"><defs><style>.cls-1{fill:#fff;}</style></defs><path class="cls-1" d="M14.19,0a14.19,14.19,0,1,0,14.2,14.19A14.19,14.19,0,0,0,14.19,0ZM8.67,17.54a.3.3,0,0,1-.3.29H4.07a.3.3,0,0,1-.21-.08h0a.28.28,0,0,1-.08-.2h0V10.85a.29.29,0,0,1,.3-.3H5.14a.29.29,0,0,1,.3.3v5.31H8.37a.3.3,0,0,1,.3.3Zm2.59,0a.29.29,0,0,1-.3.29H9.89a.29.29,0,0,1-.3-.29V10.85a.29.29,0,0,1,.3-.3H11a.29.29,0,0,1,.3.3Zm7.41,0a.29.29,0,0,1-.3.29H17.15l0,0h0a.27.27,0,0,1-.08-.07L14,13.56v4a.29.29,0,0,1-.3.29H12.61a.29.29,0,0,1-.3-.29V10.85a.29.29,0,0,1,.3-.3h1.26v0h0l0,0h0l0,0L17,14.82v-4a.29.29,0,0,1,.3-.3h1.07a.29.29,0,0,1,.3.3Zm5.65-4.18a.3.3,0,0,1,.3.29v1.08a.3.3,0,0,1-.3.3H21.39v1.13h2.93a.3.3,0,0,1,.3.3v1.08a.3.3,0,0,1-.3.29H20a.3.3,0,0,1-.21-.08h0a.28.28,0,0,1-.08-.2h0V10.85h0a.32.32,0,0,1,.08-.21h0a.3.3,0,0,1,.21-.08h4.3a.3.3,0,0,1,.3.3v1.08a.3.3,0,0,1-.3.29H21.39v1.14Z"/></svg>