<svg id="圖層_1" data-name="圖層 1" xmlns="http://www.w3.org/2000/svg" viewBox="0 0 50 50"><defs><style>.cls-1{fill:#8f3063;}.cls-2{fill:#fff;}</style></defs><rect class="cls-1" y="-0.02" width="50.05" height="50.05"/><path class="cls-2" d="M25,10.58A14.42,14.42,0,1,0,39.44,25,14.42,14.42,0,0,0,25,10.58Z"/><path class="cls-1" d="M32.64,31.62l-1.16,1.15a2.06,2.06,0,0,1-.83.34A13.61,13.61,0,0,1,16.92,19.34a2.18,2.18,0,0,1,.33-.79l1.16-1.16a1.93,1.93,0,0,1,1.8-.42l.24.08a2.27,2.27,0,0,1,1.32,1.39l.58,2.13a2.07,2.07,0,0,1-.48,1.83l-.77.77a8.18,8.18,0,0,0,5.76,5.75l.77-.77a2.11,2.11,0,0,1,1.82-.48l2.14.59A2.31,2.31,0,0,1,33,29.57l.08.25A1.93,1.93,0,0,1,32.64,31.62Z"/></svg>