<svg id="圖層_1" data-name="圖層 1" xmlns="http://www.w3.org/2000/svg" viewBox="0 0 325.79 91.97"><defs><style>.cls-1{fill:#835a20;}.cls-2{fill:#8f3063;}</style></defs><path class="cls-1" d="M123.69,20.87q.24,0,.69.75a3.35,3.35,0,0,1,.26,1.05.48.48,0,0,1-.11.25c-.57.62-1.35,1.54-2.33,2.78l1.59-.18a12.78,12.78,0,0,0,1.69-.27,7.16,7.16,0,0,1,.73-.08,1.32,1.32,0,0,1,.62.23c.28.28.43.47.43.57s0,.2-.1.2c-1.92.12-4,.29-6.32.5V29.2c.81-.08,1.44-.16,1.9-.23a8.81,8.81,0,0,0,1.19-.25,4.84,4.84,0,0,1,.57-.1,1.46,1.46,0,0,1,.64.28c.27.28.41.47.41.57s0,.15-.1.15c-1.41.1-3,.25-4.61.43V32.5a.68.68,0,0,1,.21,0c1.38-.1,2.49-.2,3.33-.28a17.72,17.72,0,0,0,1.78-.27,5.69,5.69,0,0,1,.76-.1,1.21,1.21,0,0,1,.67.27c.25.28.38.48.38.58s0,.15-.1.15c-2.23.13-4.7.31-7.41.52l.26.33a1.45,1.45,0,0,1,.55.9.57.57,0,0,1-.12.37c-.08.24-.25.67-.52,1.3a43.79,43.79,0,0,0,6.7-.87.92.92,0,0,1,.45-.15,2.34,2.34,0,0,1,.88.52c.46.3.69.49.69.58s-.11.35-.33.35c-2.1.1-4.69.26-7.8.47.46.45,1,1,1.74,1.58a29.18,29.18,0,0,0,4.08,3,11.43,11.43,0,0,0,3.69.92c.12,0,.19.08.19.25s-.07.3-.19.3c-.6,0-1.39.1-2.36.2a9.7,9.7,0,0,1-1.21.15.69.69,0,0,1-.52-.22q-1.42-1.45-3.71-3.48-1.28-1.17-2.61-2.55a9.79,9.79,0,0,1-1.5,2.6,11.68,11.68,0,0,1-3.25,2.6,17.5,17.5,0,0,1-3,1.48,3.41,3.41,0,0,1-1.12.32s-.05,0-.05-.1a.23.23,0,0,1,.15-.2,22.29,22.29,0,0,0,3.8-2.1,11.71,11.71,0,0,0,2.3-2,10.61,10.61,0,0,0,1.57-2.65c-3.25.26-5,.44-5.32.52a3,3,0,0,1-.5.08,1.94,1.94,0,0,1-1-.5q-.33-.29-.33-.45c0-.17.14-.25.43-.25,1.12,0,3.47-.12,7-.35a13.3,13.3,0,0,0,.38-2.95c-2.72.16-4.39.29-5,.37a3.53,3.53,0,0,1-.55.08,1.72,1.72,0,0,1-.69-.3c-.24-.25-.35-.42-.35-.5s0-.1.14-.1c2.25-.11,3.81-.19,4.68-.25.65,0,1.24,0,1.78-.1V30.15c-1.65.13-2.69.24-3.14.32a1.3,1.3,0,0,1-.33.05,1.84,1.84,0,0,1-.69-.3c-.23-.25-.35-.41-.35-.5s0-.1.14-.1c1.49-.08,2.51-.15,3.07-.2l1.3-.12V26.74h0c-2.5.22-4.05.39-4.64.51a3.06,3.06,0,0,1-.57.07,1.35,1.35,0,0,1-.61-.3c-.29-.25-.43-.42-.43-.5s.06-.1.19-.1c2.06-.1,3.48-.19,4.28-.28,1-.08,1.84-.16,2.68-.25a5.45,5.45,0,0,0,.64-.07.72.72,0,0,1,.1-.18,13.3,13.3,0,0,0,1.12-2.15,8.45,8.45,0,0,0,.83-2.45A.23.23,0,0,1,123.69,20.87Zm-7.46,1a.76.76,0,0,1,.36.12,16.67,16.67,0,0,1,2.09,1.36c.33.21.5.39.5.52a4.61,4.61,0,0,1-.14.85q-.29.6-.48.6a.42.42,0,0,1-.36-.25,14.5,14.5,0,0,0-1.87-2.77.83.83,0,0,1-.19-.33C116.14,21.9,116.17,21.87,116.23,21.87Z"/><path class="cls-1" d="M141.8,20.92c.1,0,.34.28.74.85a3.7,3.7,0,0,1,.45,1.1.68.68,0,0,1-.19.43,6.61,6.61,0,0,0-1.4,2c-.41.65-.8,1.24-1.17,1.78V44c0,.2-.09.3-.28.3s-.36-.31-.79-.92a2.47,2.47,0,0,1-.35-1.08,6,6,0,0,1,.28-1.27,10.37,10.37,0,0,0,.24-2.43V28.35c-.33.37-.62.72-.88,1a28.46,28.46,0,0,1-3.61,3.3.53.53,0,0,1-.36.23c-.06,0-.09,0-.09-.1s.07-.16.21-.23a31.51,31.51,0,0,0,3.31-3.75,25.11,25.11,0,0,0,3-4.75,6.74,6.74,0,0,0,.79-3C141.71,21,141.74,20.92,141.8,20.92Zm12.08,9.71a2.53,2.53,0,0,1,.8.47c.38.3.57.47.57.53s-.06.2-.19.2q-2.66.17-6.6.6v7.78h.07c1.12-.09,2-.16,2.75-.23a14.25,14.25,0,0,0,1.55-.2,3.54,3.54,0,0,1,.67-.1,1.13,1.13,0,0,1,.61.28c.29.21.43.37.43.47s0,.2-.14.2l-6.61.5c-2.34.13-3.77.24-4.28.33a2.41,2.41,0,0,1-.52.07,1.36,1.36,0,0,1-.62-.32c-.28-.22-.42-.36-.42-.43s.06-.15.19-.15c1.88-.08,3.18-.16,3.89-.23.56,0,1.08-.07,1.57-.12V32.5a1.1,1.1,0,0,1-.26,0c-2.76.27-4.25.45-4.47.53a1.63,1.63,0,0,1-.4.08,1.42,1.42,0,0,1-.88-.45c-.27-.16-.41-.29-.41-.41s.15-.35.43-.35q1.33,0,6-.3V25a13.46,13.46,0,0,0-.28-2.7,5.57,5.57,0,0,1-.34-1.15c0-.14.07-.2.19-.2s.42.26.91.8.81.85.81,1.05a5.33,5.33,0,0,1-.19,1.05,24.86,24.86,0,0,0-.24,3.7v4.05a23.2,23.2,0,0,0,5-.85A1.48,1.48,0,0,1,153.88,30.63Z"/><path class="cls-1" d="M163.1,21c.06,0,.27.25.64.75a2.5,2.5,0,0,1,.45,1,1,1,0,0,1-.14.38,27.49,27.49,0,0,0-1,4.5q-.09.72-.21,1.32l2.54-.42a12.75,12.75,0,0,0,.1-1.48c0-.06.08-.1.24-.1s.24.23.49.68a2.69,2.69,0,0,1,.46,1,1.49,1.49,0,0,1-.24.6,24.89,24.89,0,0,0-.67,2.63,34.8,34.8,0,0,1-1.28,4c-.1.25-.2.5-.31.75a6.21,6.21,0,0,1,1.12,1.12c.22.19.33.86.33,2,0,.07,0,.1-.14.1s-.18-.07-.29-.2c-.44-.68-.92-1.37-1.45-2a14.38,14.38,0,0,1-1.9,2.73,21,21,0,0,1-2.49,2.5,2.28,2.28,0,0,1-.91.47q-.09,0-.09-.15t.24-.27a29.43,29.43,0,0,0,2.54-2.78,14.22,14.22,0,0,0,2-3.1s0-.07.05-.1a12.06,12.06,0,0,0-2-1.65.55.55,0,0,1-.22-.45c0-.19,0-.47.07-.85a28.77,28.77,0,0,0,.91-4.06l-.52.15q-.89.21-1.65.45a.4.4,0,0,1-.23.1,1.6,1.6,0,0,1-.81-.37q-.57-.42-.57-.63c0-.05.06-.08.19-.1,1-.05,1.77-.12,2.42-.22l1.29-.2c.14-1,.27-2,.4-3a42,42,0,0,0,.5-4.88C163,21.09,163.06,21,163.1,21Zm2.25,8.2-2.61.53c-.29,1.65-.51,2.89-.67,3.7a4.7,4.7,0,0,0-.11,1.13.69.69,0,0,0,.23.45l1.43,1a25.72,25.72,0,0,0,1.31-4.25C165.11,30.82,165.26,30,165.35,29.22ZM177.5,32a1.37,1.37,0,0,1,.69.32c.23.22.35.38.35.48s0,.2-.09.2c-1.7.13-3.58.29-5.66.47v2.55c.49-.06,1-.12,1.62-.17a4.7,4.7,0,0,0,.85-.18l.24,0a2,2,0,0,1,.81.27c.38.27.57.44.57.53a.2.2,0,0,1-.14.2l-4,.25v3.68c1,.56,1.92,1,2.71,1.37a19.72,19.72,0,0,0,4.09.65c.13,0,.19.08.19.25s-.06.3-.19.3c-.57,0-1.32.14-2.26.28a8.6,8.6,0,0,1-1.12.17,1.05,1.05,0,0,1-.61-.2q-1.71-1.16-4.38-2.7c-1-.63-2-1.29-3.08-1.95a17.46,17.46,0,0,1-1.72,2.45,30.69,30.69,0,0,1-2.33,2.48c-.11.18-.18.27-.23.27s-.1-.08-.1-.25.07-.12.19-.2A22.21,22.21,0,0,0,166,40.6a19.15,19.15,0,0,0,1.38-2.87,10.51,10.51,0,0,0,.66-2.35c0-.17.05-.25.1-.25s.29.22.64.67a1.67,1.67,0,0,1,.4.88.54.54,0,0,1-.09.35,10.11,10.11,0,0,1-.53.9l-.12.17c.66.42,1.51.95,2.57,1.58a7.45,7.45,0,0,0,.83.45V33.6c-2.13.13-3.44.25-3.92.35a2.6,2.6,0,0,1-.5.08,1.41,1.41,0,0,1-.62-.3q-.42-.36-.42-.45c0-.1.06-.15.19-.15,1.82-.1,3.07-.19,3.75-.25.86-.09,1.67-.16,2.43-.2,1.09-.1,2-.2,2.66-.28a9.69,9.69,0,0,0,1.5-.22A2.79,2.79,0,0,1,177.5,32ZM169,22.57c.08,0,.21.28.38.83.06.21.12.42.17.62l4.49-.6a1.5,1.5,0,0,0,1-.5c.19-.4.34-.6.43-.6s.31.15.55.45.4.45.4.55a1.1,1.1,0,0,1-.24.55.93.93,0,0,0-.28.65l-.64,4.85.31.15c.28.19.42.32.42.4s-.16.2-.49.25l-5.59.6v.6q0,.81-.33.81c-.11,0-.26-.2-.43-.61a2.56,2.56,0,0,1-.28-1.1A2.65,2.65,0,0,1,169,30a16.68,16.68,0,0,0,.14-2.48,27.43,27.43,0,0,0-.21-3.95c-.07-.5-.1-.78-.1-.85S168.86,22.57,169,22.57Zm.93,7.45c2.39-.3,3.92-.52,4.58-.67l.53-5.23-5.3.7c.06.54.1,1.17.12,1.9V27a25.24,25.24,0,0,0,3-.62l.35-.08a2.74,2.74,0,0,1,.48.3c.25.22.38.37.38.45s-.12.13-.36.18c-1.41.16-2.68.33-3.8.5C169.9,28.62,169.92,29.37,169.92,30Z"/><path class="cls-1" d="M184.72,23.87c.08,0,.24.28.48.85a5.51,5.51,0,0,1,.24,1.2l3.46-.7a.68.68,0,0,0,.55-.22c.16-.32.26-.48.31-.48a1.19,1.19,0,0,1,.69.33c.3.23.45.39.45.47s-.14.34-.4.63a2.24,2.24,0,0,0-.22,1q-.17,3.3-.21,6a37.29,37.29,0,0,1-.31,4.73c-.11.81-.22,1.22-.33,1.22s-.34-.22-.57-.67a2.38,2.38,0,0,1-.24-.88.22.22,0,0,1,0-.12c-1.08.2-2.07.36-3,.5v1.07c0,.5-.09.75-.28.75s-.23-.18-.41-.55a2.16,2.16,0,0,1-.35-1.1,8,8,0,0,1,.07-1c.08-.77.12-2.44.14-5q0-4.35-.21-6.5c-.07-.85-.1-1.33-.1-1.43S184.6,23.87,184.72,23.87Zm.95,13a14.84,14.84,0,0,0,2.33-.45,1,1,0,0,1,.29-.1c.06,0,.22.12.47.35l0,0a10.91,10.91,0,0,0,.33-2.33q.28-6,.33-8.38l-3.95.63c0,.48.06,1,.08,1.52,0,1,0,2.05,0,3a11.68,11.68,0,0,0,1.81-.5l.24-.07a1.89,1.89,0,0,1,.54.3c.21.21.31.36.31.45s-.06.11-.19.15c-1,.13-1.9.27-2.71.42C185.64,33.74,185.66,35.41,185.67,36.88Zm15.92-11.66a1.49,1.49,0,0,1,.65.28c.26.28.4.47.4.57s0,.2-.09.2q-2.64.18-5.76.48v3.7l.57-.05c1-.13,1.82-.25,2.45-.35a8.09,8.09,0,0,0,1.38-.3,2.89,2.89,0,0,1,.55-.12,1.53,1.53,0,0,1,.69.27,1.36,1.36,0,0,1,.35.58q0,.15-.09.15l-4.11.4c.49.43.73.73.73.9a1.72,1.72,0,0,1-.14.62,1,1,0,0,0-.19.58v1.1l.83-.1a8.22,8.22,0,0,0,1.43-.28,3.57,3.57,0,0,1,.59-.12,1.53,1.53,0,0,1,.69.27c.24.29.36.48.36.58s0,.2-.1.2c-1.2.08-2.47.19-3.8.32v6.53a7.8,7.8,0,0,1-.19,1.83c-.13.55-.27.82-.43.82s-.21-.1-.35-.32c-.95-1.19-1.85-2.24-2.69-3.15a1,1,0,0,1-.09-.38c0-.07,0-.1.09-.1a4.67,4.67,0,0,1,1.14.7,5.84,5.84,0,0,0,1.29.85c.25,0,.39-.23.42-.7v-6c-.52,0-1,.11-1.59.2-2.14.2-3.47.36-4,.47a1.4,1.4,0,0,1-.41.08,1.46,1.46,0,0,1-.68-.3c-.24-.25-.36-.42-.36-.5s.06-.1.19-.1c1.73-.12,2.92-.21,3.59-.28.84-.08,1.61-.17,2.33-.25q.47,0,.9-.12a13.76,13.76,0,0,0-.33-2.83,3,3,0,0,0-.15-.38c-.27,0-.57.07-.9.1-2.08.2-3.35.35-3.82.45a1.23,1.23,0,0,1-.43.1,1.92,1.92,0,0,1-.65-.3c-.26-.23-.4-.4-.4-.5s.06-.1.19-.1c1.71-.11,2.88-.21,3.49-.3l.79-.1V26.87c-1.82.17-3,.3-3.45.4a2.67,2.67,0,0,1-.4.05,1.36,1.36,0,0,1-.67-.3c-.25-.25-.38-.42-.38-.5s.07-.1.19-.1c1.7-.1,2.87-.18,3.52-.25l1.19-.13V24.52a13.18,13.18,0,0,0-.22-2.38,6.92,6.92,0,0,1-.21-1c0-.14.05-.2.14-.2s.38.24.86.72.71.74.71.93a2.75,2.75,0,0,1-.24.92,22.47,22.47,0,0,0-.16,2.48.58.58,0,0,1,.19,0c1.06-.16,1.92-.28,2.59-.35a7,7,0,0,0,1.33-.25A4.24,4.24,0,0,1,201.59,25.22Zm-8.08,10.56a.52.52,0,0,1,.24.1,11.54,11.54,0,0,1,1.43,1.45,1,1,0,0,1,.33.55,4.61,4.61,0,0,1-.14.85q-.27.6-.48.6t-.24-.27a14.12,14.12,0,0,0-1.14-2.86,1.22,1.22,0,0,1-.09-.32C193.42,35.81,193.45,35.78,193.51,35.78Z"/><path class="cls-1" d="M216.81,20.87a3.92,3.92,0,0,1,1,.85c.6.57.91,1,.91,1.15a4.45,4.45,0,0,1-.24,1.13,24.94,24.94,0,0,0-.29,4.07v2.58l5.75-.47a1,1,0,0,0,.88-.63c.16-.25.3-.37.41-.37a2.07,2.07,0,0,1,.66.42c.41.35.62.58.62.68s-.14.26-.43.45a2.46,2.46,0,0,0-.31,1.12q-.49,7.71-.78,10.06a17.6,17.6,0,0,1-.52,2.55c-.18.48-.3.73-.38.73s-.15-.06-.22-.18c-1.2-1.35-2.29-2.61-3.25-3.78a.45.45,0,0,1-.1-.25.09.09,0,0,1,.1-.1.54.54,0,0,1,.26.1c.73.57,1.46,1.09,2.18,1.55a.75.75,0,0,0,.5.2c.16,0,.27-.18.34-.55a41.92,41.92,0,0,0,.45-4.4q.24-2.67.33-6.8l-13.28,1.35c0,.5.08,1.07.09,1.7.06,4.12.1,7.47.1,10.06,0,.66-.15,1-.43,1s-.32-.25-.52-.73a2.38,2.38,0,0,1-.43-1.28,4.14,4.14,0,0,1,.12-.9,46.49,46.49,0,0,0,.19-4.87,66,66,0,0,0-.24-6.61c-.11-.83-.17-1.31-.17-1.42s.08-.2.24-.2.28.34.52,1a4.69,4.69,0,0,1,.34,1.23l5.94-.58V25.22a18.73,18.73,0,0,0-.24-2.92,8,8,0,0,1-.29-1.28C216.61,20.92,216.68,20.87,216.81,20.87Zm-5,3.25a.63.63,0,0,1,.33.18c1.2,1,2.05,1.76,2.54,2.27a1.84,1.84,0,0,1,.41.95,4,4,0,0,1-.12,1.08c-.05.25-.15.37-.31.37s-.22-.15-.38-.45a25.57,25.57,0,0,0-2.05-3.25,2.55,2.55,0,0,1-.52-1.05C211.67,24.15,211.7,24.12,211.77,24.12Zm3,9.16c.12,0,.31.31.57.95a4.35,4.35,0,0,1,.16.57l3.59-.42a1.61,1.61,0,0,0,1.05-.6c.24-.34.41-.5.52-.5s.27.13.48.4.47.45.47.55a.89.89,0,0,1-.33.55,1.19,1.19,0,0,0-.29.7l-.28,2.77a3,3,0,0,1,.48.33c.28.18.42.32.42.4s-.16.11-.5.13c-2,.2-3.8.4-5.41.62V40a8,8,0,0,1-.12,1.27.13.13,0,0,1-.15.15c-.14,0-.31-.18-.5-.55a4,4,0,0,1-.16-.9v-.47a13.18,13.18,0,0,0,.12-2.18q0-1.2-.12-2.55c-.07-.72-.1-1.15-.1-1.3S214.74,33.29,214.81,33.28Zm.9,5.67a40.58,40.58,0,0,0,4.21-.6l.23-3.37-4.49.65v.15C215.68,36,215.69,37.09,215.71,39Zm7.6-16.18c.2,0,.43.26.72.78a4.18,4.18,0,0,1,.33,1.22q0,.12-.21.3c-.72.75-1.79,1.94-3.21,3.55a.88.88,0,0,1-.67.45c-.19,0-.28-.08-.28-.25a.54.54,0,0,1,.21-.42,16.74,16.74,0,0,0,1.67-2.5A9.36,9.36,0,0,0,222.94,23,.37.37,0,0,1,223.31,22.77Z"/><path class="cls-1" d="M251,31.48a2.34,2.34,0,0,1,.81.4c.39.31.57.51.57.6s0,.2-.14.2c-2.17.08-4.82.21-7.94.37v2.08l2.71-.2a.56.56,0,0,0,.45-.23c.21-.31.34-.47.41-.47a1,1,0,0,1,.59.32c.37.2.55.36.55.48s-.15.34-.45.62a2.08,2.08,0,0,0-.26,1c0,1.38-.08,2.62-.1,3.72a27.65,27.65,0,0,1-.19,3c-.06.54-.14.8-.24.8s-.34-.22-.54-.67a2.48,2.48,0,0,1-.22-.88,4.77,4.77,0,0,1-.54,0q-4.67.3-8.58.58v.37c0,.54-.11.8-.34.8s-.26-.2-.45-.6a2.38,2.38,0,0,1-.26-1.1,1.78,1.78,0,0,1,.07-.47,20.8,20.8,0,0,0,.14-2.8,32.19,32.19,0,0,0-.21-4.28c-.06-.54-.09-.85-.09-1s.06-.1.19-.1.2.29.38.87a4.41,4.41,0,0,1,.16.65l2.93-.2c.08-.61.13-1.32.16-2.12-4.07.26-6.27.44-6.6.52a5.34,5.34,0,0,1-.69.08,2,2,0,0,1-.88-.4c-.24-.19-.36-.35-.36-.5s.13-.3.38-.3c1.4,0,4.46-.1,9.2-.28a86.46,86.46,0,0,0,8.77-.88A2.5,2.5,0,0,1,251,31.48ZM241.38,22a1.93,1.93,0,0,1,.54.25c.21.18.31.33.31.45s-.16.13-.47.18l-3.76.27.07.1a2.82,2.82,0,0,1,.27.75.24.24,0,0,1-.08.13,1,1,0,0,0-.31.45,14.26,14.26,0,0,0,2.36-.38l.31-.05a1.13,1.13,0,0,1,.45.23q.21.2.21.27c0,.09-.08.14-.24.18l-1.78.2c0,.58-.12,1.14-.21,1.67a9.67,9.67,0,0,0,1.38-.2c.3,0,.53,0,.71,0a.93.93,0,0,1,.36.18c.2.15.31.27.31.37a.11.11,0,0,1-.1.1c-1.17.09-2.12.16-2.83.23,0,0,0,.05,0,.05l.14,0a10.87,10.87,0,0,1,1.74.87c.27.1.4.19.4.25a3.26,3.26,0,0,1-.12.73c-.14.32-.28.48-.4.48a.38.38,0,0,1-.34-.2,6.85,6.85,0,0,0-1.54-1.83,1.21,1.21,0,0,1-.21.47,10.1,10.1,0,0,1-.57,1,12.17,12.17,0,0,1-1.05.9,1.61,1.61,0,0,1-.57.33.09.09,0,0,1-.1-.1c0-.12,0-.19.1-.2a6.84,6.84,0,0,0,1-1A5.54,5.54,0,0,0,238,28a3.89,3.89,0,0,0,.17-.65c-.29,0-.53.07-.72.1a5.46,5.46,0,0,1-.66.08,1.2,1.2,0,0,1-.48-.18c-.13-.13-.19-.22-.19-.27a.1.1,0,0,1,.05-.1c.84-.07,1.56-.15,2.16-.23,0-.1,0-.19.05-.27a8.25,8.25,0,0,0,.14-1.38,9.23,9.23,0,0,1-.95.1,3.87,3.87,0,0,1-.38.47,3.41,3.41,0,0,1-.93.88c0,.05-.06.07-.09.07s-.05,0-.05-.1v-.07a10,10,0,0,0,.74-1.18c.25-.56.45-1.05.59-1.47a3.44,3.44,0,0,0,.12-.63l-2,.2a1,1,0,0,1,.08.4c0,.49,0,2.61.07,6.38a3,3,0,0,1,0,.45q4.47-.24,5.66-.47c.38,0,.6-.05.67-.05a1.38,1.38,0,0,1,.47.3c.25.15.38.26.38.35s-.19.11-.57.15l-6.63.57a2.87,2.87,0,0,1-.12.65c0,.19-.05.28-.14.28s-.23-.21-.4-.63a2.47,2.47,0,0,1-.22-.92,4.29,4.29,0,0,1,0-.65c.06-.64.09-1.75.09-3.35,0-1.11,0-2.31-.14-3.61q-.09-1.44-.09-1.8c0-.11,0-.18.09-.2s.32.33.52,1a3,3,0,0,1,.12.43q4.28-.41,5.42-.65Zm-3.54,17.69a.34.34,0,0,0,0-.1,8.9,8.9,0,0,0,1.69-1.76,3.87,3.87,0,0,0,.71-1.7l-2.61.2a16.73,16.73,0,0,1,.14,2C237.83,38.81,237.84,39.25,237.84,39.66Zm.07,2.75q5.9-.25,7.48-.48l.83,0a2,2,0,0,1,.62.3,1.29,1.29,0,0,1,.24.15.73.73,0,0,1,0-.12,10.63,10.63,0,0,0,.16-1.48q.08-1.27.12-2.25l0,0a5.85,5.85,0,0,1-1.71.17c-1.06,0-1.69-.14-1.9-.43a2.31,2.31,0,0,1-.28-1.37v-1l-2.28.15a.61.61,0,0,0,0,.17,4.65,4.65,0,0,1-.88,1.68,7.43,7.43,0,0,1-.8.88l-1.12.87a.82.82,0,0,1-.45.25.1.1,0,0,1-.07,0C237.87,40.82,237.89,41.67,237.91,42.41Zm6.51-2.73a1.33,1.33,0,0,1,.54.18c.21.16.31.29.31.37a.19.19,0,0,1-.14.2q-3.33.45-4.23.63a4.62,4.62,0,0,1-.76.12,1,1,0,0,1-.45-.27c-.21-.24-.31-.4-.31-.48s.06-.08.19-.1a28.79,28.79,0,0,0,4.23-.58A3.61,3.61,0,0,1,244.42,39.68Zm-.95-4.5V33.1c-.64.09-1.28.14-1.93.18q-.09,1.35-.21,2.1Zm4.32-9.11a1.13,1.13,0,0,1,.48.28.87.87,0,0,1,.33.52c0,.05-.06.12-.19.2-.33.42-.81,1-1.42,1.75a1.68,1.68,0,0,1-.36.43c.55.18,1.1.37,1.64.57a1.19,1.19,0,0,1,.52.71,2.41,2.41,0,0,1,.14.75c0,.13,0,.2-.09.2a1,1,0,0,1-.48-.18L246,29.88a9.63,9.63,0,0,1-.92.77,10,10,0,0,1-2.5,1.3l-.69.33c-.13,0-.19,0-.19-.1a.23.23,0,0,1,.19-.25,22.66,22.66,0,0,0,2.73-1.73,6.16,6.16,0,0,0,.72-.67c-.64-.35-1.24-.72-1.81-1.1-.11,0-.17-.07-.17-.15a.1.1,0,0,1,.1-.11,4.41,4.41,0,0,1,.9.21c.56.18,1.08.38,1.57.59.22-.28.41-.54.57-.77a9.69,9.69,0,0,0,.67-1c-.45.07-.86.12-1.24.15q-.9.12-1.71.3a1.9,1.9,0,0,1-.43.08,1,1,0,0,1-.5-.18c-.17-.08-.26-.17-.26-.28s0-.08.1-.1c1.23-.16,2.5-.35,3.8-.55a.47.47,0,0,0,.4-.27A.77.77,0,0,1,247.79,26.07Zm-4.23-4.65c.07,0,.23.14.5.42a2.05,2.05,0,0,1,.36.56l1.38-.28a1.46,1.46,0,0,0,.78-.4,1.62,1.62,0,0,1,.45-.4c.07,0,.2.12.41.37l.35.33c0,.07-.1.22-.31.48a1.3,1.3,0,0,0-.26.72,5.94,5.94,0,0,0,.12,1.85,1.09,1.09,0,0,0,.57.1,2.37,2.37,0,0,0,1.19-.37.81.81,0,0,1,.36-.18c.08,0,.25.11.52.33s.28.31.28.37-.09.23-.28.28a13.22,13.22,0,0,1-2.31.37,1.51,1.51,0,0,1-1-.27,7.7,7.7,0,0,1-.29-2.88l-2.18.25a3.91,3.91,0,0,0,0,.55,5.9,5.9,0,0,1-.38,1.93,5.28,5.28,0,0,1-1.09,1.4,2.06,2.06,0,0,1-.74.47c-.06,0-.09,0-.09-.1l.14-.15a4.76,4.76,0,0,0,1.21-2,8.29,8.29,0,0,0,.19-2,6.26,6.26,0,0,0,0-1.2c0-.24,0-.38,0-.43S243.43,21.42,243.56,21.42Zm.76,14.41v1.05a1.44,1.44,0,0,0,.19.75,1.06,1.06,0,0,0,.76.25,4.46,4.46,0,0,0,1.19-.15,4,4,0,0,1,.57,0,.75.75,0,0,1,.41.12c0-1,.08-1.7.09-2.2Z"/><path class="cls-1" d="M269.7,20.87q.24,0,.69.75a3.35,3.35,0,0,1,.26,1.05.41.41,0,0,1-.11.25c-.57.62-1.35,1.54-2.33,2.78l1.59-.18a12.78,12.78,0,0,0,1.69-.27,7.16,7.16,0,0,1,.73-.08,1.32,1.32,0,0,1,.62.23c.29.28.43.47.43.57s0,.2-.1.2q-2.87.18-6.32.5V29.2c.81-.08,1.44-.16,1.9-.23a8.48,8.48,0,0,0,1.19-.25,4.84,4.84,0,0,1,.57-.1,1.46,1.46,0,0,1,.64.28c.27.28.41.47.41.57s0,.15-.1.15c-1.41.1-2.94.25-4.61.43V32.5a.78.78,0,0,1,.22,0c1.37-.1,2.48-.2,3.32-.28a18,18,0,0,0,1.79-.27,5.32,5.32,0,0,1,.76-.1,1.19,1.19,0,0,1,.66.27c.25.28.38.48.38.58s0,.15-.09.15c-2.24.13-4.71.31-7.42.52l.26.33a1.45,1.45,0,0,1,.55.9.57.57,0,0,1-.12.37c-.08.24-.25.67-.52,1.3a43.79,43.79,0,0,0,6.7-.87.92.92,0,0,1,.45-.15,2.34,2.34,0,0,1,.88.52c.46.3.69.49.69.58s-.11.35-.33.35q-3.13.15-7.8.47c.46.45,1,1,1.74,1.58a28.6,28.6,0,0,0,4.09,3,11.29,11.29,0,0,0,3.68.92c.13,0,.19.08.19.25s-.06.3-.19.3c-.6,0-1.39.1-2.35.2a9.92,9.92,0,0,1-1.21.15.69.69,0,0,1-.53-.22c-.95-1-2.18-2.13-3.71-3.48q-1.28-1.17-2.61-2.55a9.79,9.79,0,0,1-1.5,2.6,11.68,11.68,0,0,1-3.25,2.6,17.5,17.5,0,0,1-3,1.48,3.35,3.35,0,0,1-1.12.32s0,0,0-.1a.22.22,0,0,1,.14-.2,22.29,22.29,0,0,0,3.8-2.1,11.71,11.71,0,0,0,2.3-2,10.94,10.94,0,0,0,1.58-2.65c-3.25.26-5,.44-5.33.52a3,3,0,0,1-.5.08,1.94,1.94,0,0,1-1-.5q-.33-.29-.33-.45c0-.17.14-.25.43-.25,1.12,0,3.47-.12,7-.35a13.3,13.3,0,0,0,.38-2.95c-2.72.16-4.39.29-5,.37a3.38,3.38,0,0,1-.55.08,1.78,1.78,0,0,1-.69-.3c-.24-.25-.35-.42-.35-.5s.05-.1.14-.1c2.25-.11,3.81-.19,4.68-.25.65,0,1.25,0,1.78-.1V30.15c-1.64.13-2.69.24-3.13.32a1.43,1.43,0,0,1-.34.05,1.84,1.84,0,0,1-.69-.3c-.23-.25-.35-.41-.35-.5s.05-.1.14-.1c1.49-.08,2.51-.15,3.07-.2l1.3-.12V26.74h0c-2.5.22-4.05.39-4.63.51a3.16,3.16,0,0,1-.57.07,1.32,1.32,0,0,1-.62-.3c-.29-.25-.43-.42-.43-.5s.07-.1.19-.1c2.06-.1,3.49-.19,4.28-.28.95-.08,1.85-.16,2.69-.25a5.7,5.7,0,0,0,.64-.07.74.74,0,0,1,.09-.18,11.88,11.88,0,0,0,1.12-2.15,8.17,8.17,0,0,0,.83-2.45A.24.24,0,0,1,269.7,20.87Zm-7.46,1a.76.76,0,0,1,.36.12,16.67,16.67,0,0,1,2.09,1.36c.33.21.5.39.5.52a4.07,4.07,0,0,1-.15.85c-.18.4-.34.6-.47.6a.42.42,0,0,1-.36-.25,14.5,14.5,0,0,0-1.87-2.77.83.83,0,0,1-.19-.33C262.15,21.9,262.18,21.87,262.24,21.87Z"/><path class="cls-1" d="M289.19,26a1.27,1.27,0,0,1,.67.28c.25.21.38.37.38.47s0,.25-.1.25c-1.5.12-3.18.27-5,.45s-2.81.32-3.24.4a.65.65,0,0,1-.33.15,1.49,1.49,0,0,1-.69-.4c-.24-.2-.36-.33-.36-.4s.07-.1.19-.1a27.36,27.36,0,0,0,2.93-.32l1.87-.2,2.12-.28a4.6,4.6,0,0,0,1.12-.2A3.64,3.64,0,0,1,289.19,26Zm-1.66,3.2a1.13,1.13,0,0,1,.55.23c.26.2.4.34.4.42s0,.25-.1.25c-.93.09-1.93.2-3,.36a15.9,15.9,0,0,0-1.92.24.71.71,0,0,1-.27,0,1.18,1.18,0,0,1-.54-.27c-.24-.2-.36-.33-.36-.38s.06-.15.19-.15c.84-.06,1.4-.12,1.69-.17l1.14-.18,1.23-.17a3.94,3.94,0,0,0,.65-.15A1.74,1.74,0,0,1,287.53,29.17Zm.19,3.21a1.26,1.26,0,0,1,.54.22c.27.2.41.34.41.43s0,.25-.1.25c-.9.08-1.88.2-2.94.35a13.2,13.2,0,0,0-1.88.25.91.91,0,0,1-.22,0,1.68,1.68,0,0,1-.64-.28c-.2-.2-.31-.32-.31-.37a.13.13,0,0,1,.15-.15c.82-.07,1.4-.13,1.73-.18l1.09-.17,1.22-.18a3,3,0,0,0,.64-.15A1.27,1.27,0,0,1,287.72,32.38Zm-4.8,3.2c.08,0,.24.28.47.85a1.19,1.19,0,0,1,.1.32l2.56-.42a1.42,1.42,0,0,0,1.05-.5c.24-.4.41-.6.52-.6s.27.15.48.45.47.45.47.55a.89.89,0,0,1-.33.55,1.15,1.15,0,0,0-.29.65L287.48,41a1.26,1.26,0,0,1,.33.22c.22.15.34.27.34.35s-.12.12-.34.15c-1.41.2-2.72.39-3.94.55v.85q0,.75-.24.75c-.13,0-.29-.18-.5-.55a2.49,2.49,0,0,1-.31-1.1,1.56,1.56,0,0,1,.07-.37,11.66,11.66,0,0,0,.17-2,17.87,17.87,0,0,0-.24-3.43q-.09-.68-.09-.75C282.73,35.61,282.79,35.58,282.92,35.58Zm.92,5.8c1.37-.13,2.32-.26,2.86-.37l.35-4-3.42.55a19,19,0,0,1,.14,2.25C283.8,40.4,283.83,40.93,283.84,41.38Zm.74-19.51a.48.48,0,0,1,.28.12,11.75,11.75,0,0,1,1.65,1.43,1,1,0,0,1,.3.55,6.59,6.59,0,0,1-.09.85c-.18.4-.33.6-.48.6s-.22-.09-.28-.27a12.11,12.11,0,0,0-1.36-2.86.89.89,0,0,1-.11-.32C284.49,21.9,284.52,21.87,284.58,21.87Zm9.56-.2c.09,0,.26.25.49.75a3.4,3.4,0,0,1,.26.9l-.07.15a3.13,3.13,0,0,0-.38.6c.41.62.94,1.36,1.57,2.23a31,31,0,0,0,3,3.55,6,6,0,0,0,2.71,1.08c.06,0,.1.08.1.25a.18.18,0,0,1-.2.2c-.49.05-1.14.14-1.94.27a5.7,5.7,0,0,1-1,.18.38.38,0,0,1-.36-.28q-1-1.73-2.4-4.15c-.57-.88-1.15-1.84-1.73-2.85a33.42,33.42,0,0,1-1.67,3.12,15.5,15.5,0,0,1-2,2.48,15.11,15.11,0,0,1-1.8,1.55,2.91,2.91,0,0,1-.81.58s-.05-.09-.05-.25a.3.3,0,0,1,.05-.15c.75-.65,1.37-1.23,1.88-1.73a12.89,12.89,0,0,0,1.5-2A21.72,21.72,0,0,0,293,24.92a12,12,0,0,0,1-3.05C294,21.74,294,21.67,294.14,21.67Zm3.75,13.56c.09,0,.3.27.62.82a3.34,3.34,0,0,1,.42,1.08,1.48,1.48,0,0,1-.09.45,4.81,4.81,0,0,0-.81.67,16.52,16.52,0,0,1-2,2,16.84,16.84,0,0,1-2.78,1.9A26.71,26.71,0,0,1,289,43.91a1.18,1.18,0,0,1-.52.17c-.07,0-.1-.08-.1-.25a.23.23,0,0,1,.15-.2,17.91,17.91,0,0,0,2.61-1.3,17,17,0,0,0,2.85-1.9,13.29,13.29,0,0,0,2.4-2.48,6.08,6.08,0,0,0,1.21-2.47C297.6,35.31,297.7,35.23,297.89,35.23ZM294,28.82c.1,0,.25.25.47.73a3.14,3.14,0,0,1,.24.92,12.69,12.69,0,0,1-.95,1.13,10.22,10.22,0,0,1-1.49,1.55,16.35,16.35,0,0,1-2.19,1.58,2.6,2.6,0,0,1-.69.3c-.1,0-.14,0-.14-.1s0-.13.16-.18a14.35,14.35,0,0,0,1.71-1.45,11.56,11.56,0,0,0,1.74-2.15,5.42,5.42,0,0,0,.9-1.78C293.86,29,293.94,28.82,294,28.82Zm1.85,3.46c.07,0,.2.22.41.67a3.24,3.24,0,0,1,.26.88,12.66,12.66,0,0,1-1.29,1.32,15.53,15.53,0,0,1-1.94,1.78,19.71,19.71,0,0,1-2.86,1.75,3.77,3.77,0,0,1-1,.4c-.06,0-.09,0-.09-.1s.06-.17.19-.25A15.46,15.46,0,0,0,292,37.08a14,14,0,0,0,2.43-2.33,6.59,6.59,0,0,0,1.19-2C295.67,32.43,295.77,32.28,295.89,32.28Z"/><path class="cls-1" d="M313.62,21.32c.13,0,.37.17.74.5s.64.62.64.75-.06.17-.19.2a8.83,8.83,0,0,0-1.47.65,25.21,25.21,0,0,1-3.19,1.43,6,6,0,0,1-1.47.37,7.62,7.62,0,0,1,.05.85c0,.72,0,1.41-.05,2.08l3.52-.43a1.32,1.32,0,0,0,1-.5c.22-.4.4-.6.52-.6s.27.15.48.45.48.45.48.55-.12.32-.34.55a1.07,1.07,0,0,0-.23.65l-.62,3.38a3.89,3.89,0,0,1,.52.28c.22.15.33.26.33.34s-.14.11-.43.16l-5.63.45c0,.08,0,.14,0,.17a21,21,0,0,1-.86,5.15,11.55,11.55,0,0,1-1.33,2.86c-.65,1-1,1.57-1.18,1.57s-.1,0-.1-.1a.83.83,0,0,1,.12-.37,12.3,12.3,0,0,0,1.47-3.08,19.44,19.44,0,0,0,.9-4.33,77.1,77.1,0,0,0,.46-9.43c0-.45-.06-1.16-.17-2.13a10.24,10.24,0,0,1-.26-1.17c0-.17.06-.25.19-.25s.33.32.62.95a8.11,8.11,0,0,1,.47,1.6,16,16,0,0,0,3.21-1.77,5.11,5.11,0,0,0,1.57-1.53C313.49,21.4,313.56,21.32,313.62,21.32Zm-5.25,11.31c2.23-.14,3.7-.26,4.4-.38l.42-3.85-4.54.5C308.56,30.23,308.46,31.48,308.37,32.63ZM322.46,22a2.49,2.49,0,0,1,.83.45c.43.43.65.7.65.8s-.09.18-.24.2a14.2,14.2,0,0,0-1.47.6c-1.12.4-2.24.77-3.38,1.1a15.12,15.12,0,0,1-1.52.3c0,1.34,0,2.75-.12,4.25,1.43-.14,3-.31,4.63-.5a10.35,10.35,0,0,0,2.07-.37,3.89,3.89,0,0,1,.55-.08,2.07,2.07,0,0,1,.83.36c.33.26.5.41.5.45s0,.18-.09.2l-4.09.4v14a.26.26,0,0,1-.29.3c-.08,0-.34-.3-.78-.92a2.54,2.54,0,0,1-.31-1.13,6.77,6.77,0,0,1,.24-1.22,13.6,13.6,0,0,0,.19-2.43V30.2l-3.47.3a.48.48,0,0,0,0,.18,30.81,30.81,0,0,1-.83,5A22.33,22.33,0,0,1,315,39.86c-.52,1-1.15,2.07-1.9,3.22-.11.17-.19.25-.24.25s-.09,0-.09-.14a1.78,1.78,0,0,1,.12-.61,16.67,16.67,0,0,0,1.35-2.6,16.23,16.23,0,0,0,1.05-3.12,31.06,31.06,0,0,0,.88-4.63c.17-1.7.26-3.86.26-6.46a11.54,11.54,0,0,0-.17-1.67c0-.64-.07-1-.07-1.13s.05-.2.14-.2a3.55,3.55,0,0,1,.57.9A5.87,5.87,0,0,1,317.3,25a17.66,17.66,0,0,0,3.26-1.55,4.33,4.33,0,0,0,1.71-1.35C322.34,22,322.4,22,322.46,22Z"/><path class="cls-2" d="M144.05,75.15c0,.09,0,.13-.12.13h-5.71c-.11,0-.17,0-.17-.13v-.41a.11.11,0,0,1,.12-.12h1.35a.28.28,0,0,0,.31-.32V67.91q0-4.92-.1-6.59,0-.36-.12-.36c-.05,0-.11.08-.19.24q-.25.54-5,11.47c-.49,1.08-.87,2-1.15,2.76q-.14.21-.21.21a.22.22,0,0,1-.23-.19c-1.15-2.34-2.33-4.78-3.56-7.3q-1-2.22-2.83-5.88c-.07-.14-.14-.21-.2-.21s-.1.09-.11.26q-.35,5-.34,7.28v2.82c0,1.46.2,2.2.6,2.2h1.47c.09,0,.14,0,.14.1v.43c0,.09,0,.13-.09.13h-4.52c-.1,0-.15,0-.15-.1v-.39c0-.12,0-.17.13-.17h1.3q.33,0,.33-.57,0-1.93.18-7.13c0-.65.08-1.31.11-2,.07-1.28.1-2.4.1-3.33a2.45,2.45,0,0,0-1.26-2.44A3.37,3.37,0,0,0,123,59c-.07,0-.1,0-.1-.1V58.4a.09.09,0,0,1,.1-.1h3.29a.31.31,0,0,1,.31.18c.78,1.53,1.61,3.19,2.51,5q2,4.25,4.27,9c.14.21.25.24.33.1q1.4-3.18,3-6.75t3.17-7.23a.42.42,0,0,1,.39-.24h3.19c.09,0,.13,0,.13.1v.44c0,.08,0,.12-.08.12h-1.23c-.25,0-.4.29-.45.85s-.09,2.62-.09,6.27c0,2.68,0,4.6.09,5.75.08,1.86.33,2.79.74,2.79H144c.07,0,.1,0,.1.12v.41Z"/><path class="cls-2" d="M155.86,74.45a.45.45,0,0,1-.05.17,8.88,8.88,0,0,1-1,.91.36.36,0,0,1-.23.08,2.12,2.12,0,0,1-1.46-.68,4,4,0,0,1-1-1.52c0-.16-.11-.17-.2,0a4.59,4.59,0,0,1-.7.72,6,6,0,0,1-.78.64,4.57,4.57,0,0,1-2.22.71,2.4,2.4,0,0,1-1.41-.33,1.81,1.81,0,0,1-.72-1.56,3.92,3.92,0,0,1,.78-2.31,4,4,0,0,1,1.71-1.29,14.84,14.84,0,0,1,3.37-1c.07,0,.12-.11.12-.27a17.58,17.58,0,0,0,0-2.59,1.26,1.26,0,0,0-.57-1,2.53,2.53,0,0,0-1.41-.33,3.66,3.66,0,0,0-1.8.32c-.2.14-.28.28-.25.43v.35a1.73,1.73,0,0,1-.28,1,1.28,1.28,0,0,1-1.05.7c-.29,0-.44-.2-.44-.58a2.2,2.2,0,0,1,.56-1.21,4.89,4.89,0,0,1,1.24-1.14,6.36,6.36,0,0,1,3.32-.73,2.9,2.9,0,0,1,2,.58,2.48,2.48,0,0,1,.46,1.79q0,1-.12,3t-.12,2.25a3,3,0,0,0,.64,2,2.94,2.94,0,0,0,1.43.82C155.8,74.35,155.86,74.4,155.86,74.45ZM152,69.79c0-.16-.06-.24-.2-.24a5.35,5.35,0,0,0-2.17.54c-1.35.6-2,1.42-2,2.45a1.53,1.53,0,0,0,.46,1.3,1.94,1.94,0,0,0,1.22.31,3.38,3.38,0,0,0,2.23-1,1,1,0,0,0,.33-.64C152,71.55,152,70.63,152,69.79Z"/><path class="cls-2" d="M169.61,75.15c0,.09,0,.13-.07.13h-5.68a.12.12,0,0,1-.13-.13v-.41c0-.08,0-.12.1-.12h1.54c.16,0,.24-.07.24-.19a.87.87,0,0,0-.19-.48l-2.58-3.68c-.09-.12-.17-.16-.25-.11a9.83,9.83,0,0,0-1.22,1.07,10.46,10.46,0,0,0-1.06,1.19,4.11,4.11,0,0,0-.87,1.61c0,.41.15.61.44.61h1.35c.07,0,.11,0,.11.12v.37a.14.14,0,0,1-.16.15h-4.65c-.07,0-.12,0-.13,0a.14.14,0,0,1,0-.09v-.38c0-.1,0-.15.14-.15h1.12c.14,0,.28-.12.4-.34a5.09,5.09,0,0,1,.39-.71,12.92,12.92,0,0,1,2.12-2.41,18.36,18.36,0,0,1,1.68-1.43c.11-.08.12-.18,0-.31-.67-.91-1.23-1.66-1.69-2.24-.85-1.1-1.42-1.8-1.68-2.1a1.4,1.4,0,0,0-1-.54h-.76a.11.11,0,0,1-.12-.12V64q0-.15.12-.15h5.59c.07,0,.1,0,.1.13v.43c0,.07,0,.1-.12.1h-1.3c-.19,0-.29.08-.29.23a1.15,1.15,0,0,0,.31.63c.59.85,1.29,1.83,2.1,2.92.09.12.17.14.25.05a9.71,9.71,0,0,0,2-2.22,2.63,2.63,0,0,0,.54-1.17.4.4,0,0,0-.46-.44h-1.23c-.07,0-.11,0-.11-.1V64c0-.09.05-.13.16-.13h4.6c.07,0,.11,0,.11.1v.44c0,.08,0,.12-.14.12h-1c-.19,0-.4.16-.62.46a14.94,14.94,0,0,1-2.19,2.61c-.41.39-.86.79-1.35,1.23-.09.09-.08.21,0,.36.83,1.16,1.73,2.42,2.71,3.75a7,7,0,0,0,.73,1q.63.72.93.72h1.1c.05,0,.07,0,.07.07v.44Z"/><path class="cls-2" d="M188.35,70.86a4,4,0,0,1-1.41,3.19,6.33,6.33,0,0,1-4.32,1.38l-1.93-.08c-1.09,0-1.9-.07-2.41-.07h-1.93a.09.09,0,0,1-.1-.1v-.44c0-.08,0-.12.1-.12h1.74c.21,0,.31-.15.31-.44,0-.1,0-1.35-.05-3.76s0-3.72,0-4v-5c-.07-1.55-.23-2.32-.48-2.32h-1.9c-.07,0-.1,0-.1-.14v-.4c0-.07,0-.11.12-.11h3.74l1.34,0,1.37,0h1.2a8.17,8.17,0,0,1,1.62.28,4,4,0,0,1,1.62,1.16,3.44,3.44,0,0,1,.77,2.26,3.73,3.73,0,0,1-.35,1.71,6.86,6.86,0,0,1-.67,1,5.92,5.92,0,0,1-1.91,1.56q-.25.14,0,.21a6.57,6.57,0,0,1,2.5,1.42A3.67,3.67,0,0,1,188.35,70.86Zm-2.66-7.78a3.86,3.86,0,0,0-1.14-2.79,4,4,0,0,0-3-1.16,5.07,5.07,0,0,0-1.1.07.29.29,0,0,0-.21.25c0,.16,0,2.31,0,6.47,0,.16,0,.23.13.23h1.59q.24,0,1,.06l.9.09a.63.63,0,0,0,.31-.1,2.68,2.68,0,0,0,1.15-1.2A4.07,4.07,0,0,0,185.69,63.08Zm.54,8.1a3.94,3.94,0,0,0-1.15-2.88,5.83,5.83,0,0,0-4.31-1.61,1.13,1.13,0,0,0-.47.07c-.06,0-.09.1-.09.25v5.48c0,1.29.18,2,.41,2.08a5.67,5.67,0,0,0,2,.27,3.28,3.28,0,0,0,3.61-3.66Z"/><path class="cls-2" d="M200,73.59a.45.45,0,0,1,0,.08,6.38,6.38,0,0,1-.65.57,8.08,8.08,0,0,1-1.25.68,6.7,6.7,0,0,1-2.73.56,4.72,4.72,0,0,1-3.5-1.3,5.24,5.24,0,0,1-1.58-3.86,11.5,11.5,0,0,1,.17-2.38A5.84,5.84,0,0,1,192,65a4.26,4.26,0,0,1,3.14-1.25,3.29,3.29,0,0,1,1.47.28,11.05,11.05,0,0,1,1.44.92,4.71,4.71,0,0,1,1.59,1.74,1.12,1.12,0,0,1,.1.39c0,.09-.08.16-.23.22a21.07,21.07,0,0,1-2.78.61,23.92,23.92,0,0,1-3.51.49H192c-.1,0-.15.2-.15.59a5.33,5.33,0,0,0,1.89,4.22,5.06,5.06,0,0,0,3.32.87,5.87,5.87,0,0,0,1.94-.26,1.85,1.85,0,0,0,.74-.37l.11-.06a.1.1,0,0,1,.1.08A.31.31,0,0,1,200,73.59Zm-2.33-6.67a.74.74,0,0,0-.13-.33A5,5,0,0,0,196.22,65a3,3,0,0,0-1.87-.63,2,2,0,0,0-1.51,1,6,6,0,0,0-.56,1.12,3.55,3.55,0,0,0-.32,1.24c0,.14,0,.2.15.2l2.14-.17a12.55,12.55,0,0,0,3.25-.59C197.63,67.09,197.7,67,197.7,66.92Z"/><path class="cls-2" d="M211.33,74.45a.45.45,0,0,1-.05.17,9.84,9.84,0,0,1-1,.91.36.36,0,0,1-.23.08,2.12,2.12,0,0,1-1.46-.68,4,4,0,0,1-1-1.52c0-.16-.11-.17-.2,0a4.59,4.59,0,0,1-.7.72,6,6,0,0,1-.78.64,4.57,4.57,0,0,1-2.22.71,2.4,2.4,0,0,1-1.41-.33,1.81,1.81,0,0,1-.72-1.56,3.92,3.92,0,0,1,.78-2.31A4,4,0,0,1,204,69.94a14.84,14.84,0,0,1,3.37-1c.07,0,.12-.11.12-.27a17.58,17.58,0,0,0,0-2.59,1.26,1.26,0,0,0-.57-1,2.58,2.58,0,0,0-1.41-.33,3.66,3.66,0,0,0-1.8.32c-.2.14-.28.28-.25.43v.35a1.73,1.73,0,0,1-.28,1,1.28,1.28,0,0,1-1.05.7c-.3,0-.44-.2-.44-.58a2.13,2.13,0,0,1,.56-1.21,4.73,4.73,0,0,1,1.24-1.14,6.36,6.36,0,0,1,3.32-.73,2.9,2.9,0,0,1,2,.58,2.53,2.53,0,0,1,.46,1.79q0,1-.12,3t-.12,2.25a3,3,0,0,0,.64,2,2.9,2.9,0,0,0,1.43.82C211.27,74.35,211.33,74.4,211.33,74.45Zm-3.86-4.66c0-.16-.06-.24-.2-.24a5.35,5.35,0,0,0-2.17.54c-1.35.6-2,1.42-2,2.45a1.53,1.53,0,0,0,.46,1.3,1.92,1.92,0,0,0,1.22.31,3.34,3.34,0,0,0,2.22-1,1,1,0,0,0,.34-.64C207.42,71.55,207.47,70.63,207.47,69.79Z"/><path class="cls-2" d="M224.25,74.77a.2.2,0,0,1-.11.17c-.21.08-.48.2-.79.34l-.39.25a.26.26,0,0,1-.22.08l-.34-.18a3.15,3.15,0,0,1-1.07-1.86c-.05-.14-.13-.16-.25,0-.28.22-1.05.71-2.31,1.45a5.33,5.33,0,0,1-2.59.46,2,2,0,0,1-1.66-.89,3.27,3.27,0,0,1-.58-1.94V67.66c0-2.09-.17-3.14-.51-3.14h-1.49c-.12,0-.17,0-.17-.13V64q0-.12.09-.12h1.54l.62,0,.67,0,.81-.1c.14,0,.21.11.21.34l0,3.81c0,2.52,0,3.9,0,4.11a2.06,2.06,0,0,0,.52,1.62,2.27,2.27,0,0,0,1.52.4,9.72,9.72,0,0,0,3.39-1q.12,0,.12-.21V66.3c0-1.15-.17-1.73-.51-1.73H219.2c-.09,0-.15,0-.15-.13V64c0-.08,0-.12.1-.12h1.61a7.93,7.93,0,0,0,1.3-.09l.75-.1q.18,0,.18.36s0,1.34,0,3.93,0,3.94,0,4.07a2.72,2.72,0,0,0,1.15,2.49A.24.24,0,0,1,224.25,74.77Z"/><path class="cls-2" d="M233.82,73.77a.36.36,0,0,1-.1.28,6.22,6.22,0,0,1-1.33.79,6.29,6.29,0,0,1-2.63.66c-1.73,0-2.6-.88-2.6-2.66,0-.1,0-1,.05-2.77s0-2.65,0-2.74,0-.47,0-1.08,0-.94,0-1a.39.39,0,0,0-.24-.38c-.13-.06-.45-.21-1-.43a.3.3,0,0,1-.15-.29.39.39,0,0,1,.19-.3c.83-.71,1.72-1.45,2.66-2.23a.56.56,0,0,1,.32-.13c.14,0,.18.12.13.36a9.15,9.15,0,0,0-.15,1.66q0,.42.12.42l2.16-.07,2.11-.07c.18,0,.24.09.19.26a2,2,0,0,1-.19.71c0,.13-.11.19-.22.19h-2l-2,0c-.1,0-.15,0-.15.13V72a3,3,0,0,0,.32,1.58c.22.38.85.56,1.88.56a6.37,6.37,0,0,0,2-.39,4.45,4.45,0,0,1,.53-.22C233.78,73.54,233.82,73.62,233.82,73.77Z"/><path class="cls-2" d="M246.09,64.39c0,.07,0,.11,0,.13l-.08,0h-.69a.37.37,0,0,0-.34.23,38.67,38.67,0,0,0-1.66,4.29q-.42,1.26-2.83,7.14a48,48,0,0,1-2.41,5,.49.49,0,0,1-.32.23l-1.46.21-1.13.15c-.15,0-.23-.06-.23-.18s.08-.17.23-.23a6.31,6.31,0,0,0,2.45-2.15,17.11,17.11,0,0,0,2.33-3.69.57.57,0,0,0-.08-.45q-1.07-2.13-2.6-6.07c-.37-.92-.87-2.1-1.51-3.54q-.32-.93-.72-.93h-.45c-.11,0-.17-.05-.17-.15V64a.13.13,0,0,1,0-.1s.06,0,.14,0h4.78c.08,0,.12,0,.12.13v.43c0,.07,0,.1-.12.1h-1.54c-.17,0-.26.09-.26.28a2.47,2.47,0,0,0,.13.49c.09.27.56,1.41,1.41,3.43q.8,2.06,1.73,4.31c.07.15.15.14.24,0a29,29,0,0,0,1.51-3.92,18,18,0,0,0,.86-3.59c0-.65-.15-1-.46-1h-1.18c-.11,0-.17,0-.17-.1V64c0-.09,0-.13.12-.13h4.22c.08,0,.12,0,.13,0s0,0,0,.09v.38Z"/><path class="cls-2" d="M268.07,72.82a.18.18,0,0,1,0,.21,8,8,0,0,1-3.1,1.79,12.92,12.92,0,0,1-4.27.61,11.07,11.07,0,0,1-3.46-.44,6.82,6.82,0,0,1-2.54-1.66q-2.06-2-2.05-6a9.79,9.79,0,0,1,1.17-4.53,8.26,8.26,0,0,1,2.89-3.09A11.71,11.71,0,0,1,263.17,58c1,0,1.89,0,2.71.12a5.91,5.91,0,0,1,1.8.36.13.13,0,0,1,.08.13q0,.2-.12,1c-.05.45-.1.85-.13,1.2,0,.09-.05.15-.1.15a.12.12,0,0,1-.13-.12,1.44,1.44,0,0,0-.14-.35,3.81,3.81,0,0,0-1-.86,9,9,0,0,0-3.91-.66,7.06,7.06,0,0,0-5.29,2,8,8,0,0,0-2.22,5.78,7.66,7.66,0,0,0,2.35,6,6.66,6.66,0,0,0,2.39,1.47,10,10,0,0,0,2.92.35,6.27,6.27,0,0,0,2.64-.59,4.4,4.4,0,0,0,1.9-1.56,2.84,2.84,0,0,0,.42-1c0-.15,0-.22.07-.22s.07,0,.09.12a3.17,3.17,0,0,0,.28.78Q267.86,72.41,268.07,72.82Z"/><path class="cls-2" d="M275.92,75.18c0,.06,0,.1-.13.1h-6.21c-.11,0-.16,0-.16-.13v-.43c0-.1.05-.15.14-.15h2c.18,0,.26-.1.26-.29V60.42c0-1.84-.16-2.77-.48-2.77h-1.54a.13.13,0,0,1-.15-.15v-.41c0-.12,0-.18.1-.18h1a7.25,7.25,0,0,0,1.84-.25c.64-.17.92-.26.84-.26.15,0,.22.12.22.37t-.07,7.4q-.07,7.36-.08,7.62c0,1.85.16,2.77.47,2.77h1.81a.12.12,0,0,1,.13.13v.49Z"/><path class="cls-2" d="M282.74,75.15c0,.09-.05.13-.15.13h-5.93c-.09,0-.13,0-.13-.15v-.39c0-.12,0-.17.1-.17h1.81q.24,0,.24-.27s0-1,0-3,0-3.06,0-3.27c0-1.29,0-2.07,0-2.33-.09-.78-.32-1.16-.67-1.16h-1.24c-.13,0-.2,0-.2-.13V64c0-.11,0-.17.12-.17h.74c.77,0,1.52,0,2.24-.1l.73-.07c.19,0,.29.13.29.39,0,0,0,1.26-.09,3.71s-.1,3.73-.1,3.85c0,2,.21,3,.61,3h1.51c.09,0,.13,0,.13.12v.46Zm-2.06-15.8a1.51,1.51,0,0,1-.6,1.17,1.48,1.48,0,0,1-1,.44.73.73,0,0,1-.83-.81,1.56,1.56,0,0,1,.42-1,1.53,1.53,0,0,1,1.22-.6C280.43,58.56,280.68,58.83,280.68,59.35Z"/><path class="cls-2" d="M296.47,75.13c0,.1,0,.15-.1.15H291.1c-.08,0-.12,0-.12-.1v-.44a.11.11,0,0,1,.12-.12h1.34c.1,0,.18-.07.22-.22a55.83,55.83,0,0,0,.18-5.8,3.91,3.91,0,0,0-.65-2.71,2.74,2.74,0,0,0-2-.61,4.73,4.73,0,0,0-2.76.75.35.35,0,0,0-.18.32c-.05.36-.07,2.25-.07,5.66q0,2.61.39,2.61h1.7c.09,0,.13,0,.13.12v.44c0,.06,0,.1-.13.1h-5.6a.12.12,0,0,1-.09,0s0,0,0-.12v-.41c0-.07,0-.1.12-.1h1.59q.18,0,.18-.24s0-1.38,0-4,0-4,0-4.11q0-1.86-.39-1.86h-1.51c-.1,0-.15,0-.15-.16v-.38c0-.07,0-.11.1-.11h1.61l.66,0,.54,0,.39-.07a1.63,1.63,0,0,1,.36,0c.11,0,.17.09.17.28,0,0,0,.26,0,.65s0,.62,0,.68c0,.25,0,.33.15.23a9.22,9.22,0,0,1,2.08-1.31,4.64,4.64,0,0,1,1.82-.41,3,3,0,0,1,2.22.87c.63.62.95,1.77.95,3.45,0,.56,0,1.5-.08,2.83s-.08,2-.08,1.95c0,1.21.08,1.82.26,1.82h1.71c.1,0,.15,0,.15.08v.41Z"/><path class="cls-2" d="M303.29,75.15c0,.09,0,.13-.15.13h-5.92c-.09,0-.13,0-.13-.15v-.39c0-.12,0-.17.1-.17H299q.24,0,.24-.27s0-1,0-3,0-3.06,0-3.27c0-1.29,0-2.07,0-2.33-.09-.78-.32-1.16-.68-1.16h-1.23c-.14,0-.2,0-.2-.13V64c0-.11,0-.17.12-.17H298c.77,0,1.52,0,2.23-.1l.74-.07c.19,0,.29.13.29.39,0,0,0,1.26-.1,3.71s-.09,3.73-.09,3.85c0,2,.2,3,.61,3h1.51c.08,0,.13,0,.13.12v.46Zm-2.05-15.8a1.51,1.51,0,0,1-.6,1.17,1.48,1.48,0,0,1-1,.44.72.72,0,0,1-.82-.81,1.6,1.6,0,0,1,.41-1,1.55,1.55,0,0,1,1.23-.6C301,58.56,301.24,58.83,301.24,59.35Z"/><path class="cls-2" d="M314.32,73.23c0,.12-.21.35-.62.66a6.89,6.89,0,0,1-4.32,1.56,4.73,4.73,0,0,1-2.17-.42,5.37,5.37,0,0,1-2.07-2.21,6.5,6.5,0,0,1-.71-3.2,9.38,9.38,0,0,1,.3-2.42,4.91,4.91,0,0,1,1.54-2.46,5,5,0,0,1,3.41-1.07A4.59,4.59,0,0,1,313,65a1.91,1.91,0,0,1,.71,1.25c0,.39-.15.59-.46.59a1.87,1.87,0,0,1-1.28-.64,3,3,0,0,1-.79-1.31c-.06-.2-.25-.32-.57-.37a6.35,6.35,0,0,0-1-.08,5.61,5.61,0,0,0-1,.08,2.86,2.86,0,0,0-1.64.86,5.13,5.13,0,0,0-1,3.48,5.77,5.77,0,0,0,1.61,4.12,3.44,3.44,0,0,0,1.78,1A7.63,7.63,0,0,0,311,74a4.43,4.43,0,0,0,2.64-.78c.09-.06.22-.14.36-.25l.15,0A.38.38,0,0,1,314.32,73.23Z"/><path class="cls-2" d="M40.28,61.86c1.45,8.76,2.25,18,2.6,22.73A49.06,49.06,0,0,0,43,92a171.75,171.75,0,0,1,4.83-25.71c3.14,1.82,7.4,4.2,8.82,4.87C64.56,74.82,75.1,80.85,93.5,79a49.44,49.44,0,0,0,8.26-1.71,27.24,27.24,0,0,0,3.14-1.16,18.48,18.48,0,0,0,3.29-1.89,6.33,6.33,0,0,0,3.06,0c1.59-.35,1.73-1.24,1.43-1.54-.76-.75-2.28,0-2.28,0a12.24,12.24,0,0,0-2.06,1.26,58,58,0,0,1-6.75-2.5C69,58.16,65.83,25.14,65.33,21.62,63.24,6.87,56.22.2,56.16.13S56.06,0,56,0a.17.17,0,0,0-.11.13,35.14,35.14,0,0,1,1.09,24C54.46,32,50.28,41.89,48.51,48.54c-1.54,5.84-2.24,11.1-3.12,15.72L43.14,63a133.53,133.53,0,0,0-1.2-16.87C39,28.32,40.72,22.71,41.4,19.64c.11-.48.47-1.4.26-1.48s-.64.6-.91,1.18a69.82,69.82,0,0,0-5,17.39c-.9,5.9-2.29,11.94-6.65,18-2-1.2-7.57-4.08-8.46-4.54-6-3.08-10-2.94-11.54-2.87-.49,0-6.43.31-8.31,4.33a6.72,6.72,0,0,0-.66,4.09C.61,60,3.9,62.09,6.42,63.27c6.74,3.13,15.32.35,17.3-.44A21.3,21.3,0,0,0,31.89,57m-6.58,1.41c-1.11,1-9,6-16.39,4.48-.68-.14-7-1.41-8.17-6.56a6.32,6.32,0,0,1-.05-3c.45-2.1,1.94-4,6-5.09,1.48-.39,6.35-1.37,13.48,2.38,1.46.76,5.74,2.82,7.1,3.67.36.22,1,.51,1.49.81A32.67,32.67,0,0,1,25.31,58.41Zm6.93-1.78a22.28,22.28,0,0,0,4.95-8.21,89.85,89.85,0,0,1,3,12.87L40,61.17m3.18,19.11c0-1.55,0-2.87,0-3.4,0,0,.29-5.82,0-13.34l2.13,1.24A151.87,151.87,0,0,0,43.15,80.28ZM104.59,76a24.31,24.31,0,0,1-4,1.34c-13.58,3-26.48-.61-29.16-1.46-12.29-3.9-16.91-7-23-9.92a2.66,2.66,0,0,1-.35-.19c5.46-20.55,13.54-33.34,13.54-33.34,10.42,35.06,31.95,37.44,39.74,40A46.79,46.79,0,0,0,108,74.2,23.79,23.79,0,0,1,104.59,76Zm6.69-1.91a5.13,5.13,0,0,1-2.74-.06,6.31,6.31,0,0,1,2.54-1.27C112.44,72.58,113.25,73.39,111.28,74.05Z"/></svg>