<svg id="圖層_1" data-name="圖層 1" xmlns="http://www.w3.org/2000/svg" xmlns:xlink="http://www.w3.org/1999/xlink" viewBox="0 0 35 35"><defs><style>.cls-1,.cls-4,.cls-5{fill:none;}.cls-2{fill:#8e2e63;}.cls-3,.cls-6{fill:#eeeaef;}.cls-3,.cls-4,.cls-5,.cls-6{stroke:#8e2e63;stroke-miterlimit:10;}.cls-3,.cls-5{stroke-width:1.01px;}.cls-4{stroke-width:1.12px;}.cls-6{stroke-width:1.11px;}.cls-7{clip-path:url(#clip-path);}.cls-8{clip-path:url(#clip-path-2);}</style><clipPath id="clip-path"><path class="cls-1" d="M24.46,16.07a8.41,8.41,0,0,1-.63,3.85c-.82,1.54-3.14,5-3.14,5L19,29.1l-.88.63,0,1.36H.66V11.25l23.17.82Z"/></clipPath><clipPath id="clip-path-2"><path class="cls-1" d="M24.46,25.54S22,29.1,20.55,30.05c-.87.58-.28,1-.28,1l4.53,3.7,1.43-5.37,2.24-4Z"/></clipPath></defs><polygon class="cls-2" points="29.55 27.32 30.46 28.98 32.12 29.88 30.46 30.79 29.55 32.45 28.64 30.79 26.99 29.88 28.64 28.98 29.55 27.32"/><path class="cls-3" d="M30.73,17a6.16,6.16,0,0,0-3.95-2.71l-1.65,2.49,0,.48-.65,1.61,3,2,1.26-1.31.4,0Z"/><line class="cls-3" x1="25.31" y1="16.85" x2="29.07" y2="19.49"/><circle class="cls-4" cx="26.88" cy="8.12" r="1.75"/><path class="cls-5" d="M24.28,19.19l-3.12,5-.47.74A25.46,25.46,0,0,0,19,29l1.58,1.08A28,28,0,0,0,24,26.36c.61-1.08,3.49-5.33,3.49-5.33l-3-2.06Z"/><polygon class="cls-2" points="21.23 24.31 24.02 26.1 26.42 22.33 23.6 20.53 21.23 24.31"/><polygon class="cls-5" points="18.97 29.1 18.09 29.73 18.11 31.09 16.55 33.37 17.29 33.86 18.83 31.58 20.27 31.01 20.45 30.05 18.97 29.1"/><path class="cls-6" d="M30,12.32l-1-.52-1.68,2.65h0a6.32,6.32,0,0,1,2.84,1.83L32,13.62Z"/><path class="cls-5" d="M32.21,9.69,28.31,7l0,.08a1.75,1.75,0,0,1-1.38,2.83,1.78,1.78,0,0,1-.61-.11l0,.06L32,13.64l.86-1.26A2.44,2.44,0,0,0,32.21,9.69Z"/><path class="cls-5" d="M26.8,6.36c.73-.09,1.64.78,1.86,1.14a1.15,1.15,0,0,1,0,.79l2.73-5.46-3-1.47L25.62,6.9C25.41,7,26.31,6.42,26.8,6.36Z"/><g class="cls-7"><rect class="cls-5" x="1.96" y="13.39" width="21.61" height="16.61" rx="2.48"/><path class="cls-2" d="M18.47,15.4H7.05a2.47,2.47,0,0,0-2.47,2.48v7.63A2.47,2.47,0,0,0,7.05,28H18.47A2.48,2.48,0,0,0,21,25.51V17.88A2.48,2.48,0,0,0,18.47,15.4ZM16,22.58l-.58,1.07-.58-1.07L13.73,22l1.07-.58.58-1.07L16,21.42,17,22Z"/></g><g class="cls-8"><rect class="cls-5" x="1.96" y="13.39" width="21.61" height="16.61" rx="2.48"/><path class="cls-2" d="M18.47,15.4H7.05a2.47,2.47,0,0,0-2.47,2.48v7.63A2.47,2.47,0,0,0,7.05,28H18.47A2.48,2.48,0,0,0,21,25.51V17.88A2.48,2.48,0,0,0,18.47,15.4ZM16,22.58l-.58,1.07-.58-1.07L13.73,22l1.07-.58.58-1.07L16,21.42,17,22Z"/></g></svg>