<svg id="圖層_1" data-name="圖層 1" xmlns="http://www.w3.org/2000/svg" viewBox="0 0 35 35"><defs><style>.cls-1{fill:none;stroke:#8e2e63;stroke-linecap:round;stroke-miterlimit:10;}.cls-2{fill:#8e2e63;}</style></defs><path class="cls-1" d="M9.82,3.81a11,11,0,0,1-.76,3.84A29.2,29.2,0,0,0,6.7,17C6,23.39,9,30.15,9,30.15"/><path class="cls-1" d="M24.26,3.81s-.66,2.9.94,4.48,5.19,4.91,5.19,10.4a9.27,9.27,0,0,1-2.08,6.41C26.76,26.8,22,32,22,32"/><path class="cls-1" d="M14.66,19s-5,6.42-6.05,13"/><ellipse class="cls-2" cx="13.63" cy="7.65" rx="0.34" ry="0.64"/><path class="cls-2" d="M15.89,15.48l.45,0A2.58,2.58,0,0,1,18.56,18v.53c-.12,1.53-1.35,3.4-4.93,5.76C10,21.94,8.82,20.07,8.69,18.54V18a2.6,2.6,0,0,1,2.22-2.51l.45,0a2.71,2.71,0,0,1,2.27,1.14,2.69,2.69,0,0,1,2.26-1.14"/></svg>