<svg id="圖層_1" data-name="圖層 1" xmlns="http://www.w3.org/2000/svg" viewBox="0 0 35 35"><defs><style>.cls-1,.cls-2{fill:none;stroke:#8e2e63;stroke-linecap:round;}.cls-1{stroke-miterlimit:10;}.cls-2{stroke-linejoin:round;}.cls-3{fill:#8e2e63;}</style></defs><path class="cls-1" d="M11.17,25a35.38,35.38,0,0,1-4.83,3.95,6.58,6.58,0,0,0-2.32,2c-.86,1.12,2.06,2.84,8.42-1.46,1.53-1,4.65-.74,5.55-2.08,1.63-2.47-.28-3.4.85-4.7,1.38-1.58,1.66-2.27,3.7-4.78"/><path class="cls-1" d="M25.67,5s-2.65-.34-3.45.82c-.63.91-1.56,4.56-3.13,7.24"/><path class="cls-2" d="M34.39,3.19S28.58,2,26.94,3.53,16.7,16.88,13.68,18.27c-3.43,1.57-8.9,3.52-9.88,3.94A24,24,0,0,0,.92,23.28c-1.19.76,1,3.39,8.41,1.58,1.78-.43,4.55,1.51,5.86.57,2.4-1.75.86-4.17,2.5-4.69s9.84-5.73,12-9.23A9.62,9.62,0,0,0,34,14.87"/><polygon class="cls-3" points="17.5 2.76 18.04 3.75 19.04 4.3 18.04 4.84 17.5 5.84 16.96 4.84 15.96 4.3 16.96 3.75 17.5 2.76"/><polygon class="cls-3" points="11.99 13.68 12.35 14.35 13.03 14.72 12.35 15.09 11.99 15.76 11.62 15.09 10.95 14.72 11.62 14.35 11.99 13.68"/><polygon class="cls-3" points="27.83 19.16 28.68 20.71 30.22 21.55 28.68 22.4 27.83 23.95 26.98 22.4 25.43 21.55 26.98 20.71 27.83 19.16"/></svg>