<svg id="圖層_1" data-name="圖層 1" xmlns="http://www.w3.org/2000/svg" viewBox="0 0 175.74 45.09"><defs><style>.cls-1{fill:#fff;}</style></defs><path class="cls-1" d="M56.62,9.7s0,0,0,0H55.16s0,0,0,0V9.6a0,0,0,0,1,0,0h.34a.07.07,0,0,0,.08-.08V7.89q0-1.23,0-1.65,0-.09,0-.09s0,0,0,.06L54.2,9.08c-.12.27-.22.5-.29.69s0,.06,0,.06a.06.06,0,0,1-.06-.05L52.91,8c-.17-.37-.41-.86-.71-1.47,0,0,0-.05-.05-.05s0,0,0,.06c0,.83-.08,1.44-.08,1.82V9c0,.37.05.55.15.55h.37a0,0,0,0,1,0,0v.1s0,0,0,0H51.44s0,0,0,0v-.1s0,0,0,0h.33c.05,0,.08-.05.08-.14,0-.32,0-.92,0-1.79,0-.16,0-.32,0-.49,0-.32,0-.6,0-.83a.61.61,0,0,0-.32-.61.84.84,0,0,0-.28-.06,0,0,0,0,1,0,0V5.51a0,0,0,0,1,0,0h.83a.09.09,0,0,1,.08,0l.62,1.25c.33.71.69,1.46,1.07,2.24,0,.05.06.06.08,0l.75-1.69c.26-.6.53-1.2.8-1.81a.1.1,0,0,1,.09-.06h.8s0,0,0,0v.11s0,0,0,0h-.31c-.07,0-.1.07-.12.22s0,.65,0,1.56c0,.67,0,1.15,0,1.44,0,.47.09.7.19.7h.36s0,0,0,0Z"/><path class="cls-1" d="M59.58,9.53l0,0a1.43,1.43,0,0,1-.25.23l-.06,0a.55.55,0,0,1-.36-.17.87.87,0,0,1-.25-.38s0,0,0,0l-.18.18-.19.16a1.23,1.23,0,0,1-.56.17.55.55,0,0,1-.35-.08.46.46,0,0,1-.18-.39,1,1,0,0,1,.19-.58,1.05,1.05,0,0,1,.43-.32,3.28,3.28,0,0,1,.84-.24s0,0,0-.07a3.32,3.32,0,0,0,0-.65.34.34,0,0,0-.14-.25.67.67,0,0,0-.35-.08.92.92,0,0,0-.45.08s-.07.07-.06.11v.09a.41.41,0,0,1-.08.24.31.31,0,0,1-.26.18c-.07,0-.11,0-.11-.15a.56.56,0,0,1,.14-.3,1.39,1.39,0,0,1,.31-.29,1.62,1.62,0,0,1,.83-.18A.72.72,0,0,1,59,7a.6.6,0,0,1,.11.44q0,.25,0,.75c0,.33,0,.52,0,.56a.79.79,0,0,0,.16.5.7.7,0,0,0,.36.2Zm-1-1.17s0-.06,0-.06a1.35,1.35,0,0,0-.54.14c-.34.15-.51.35-.51.61a.39.39,0,0,0,.12.33.47.47,0,0,0,.3.08.86.86,0,0,0,.56-.25.21.21,0,0,0,.08-.16A5.76,5.76,0,0,0,58.61,8.36Z"/><path class="cls-1" d="M63,9.7s0,0,0,0H61.58s0,0,0,0V9.6s0,0,0,0H62s.06,0,.06-.05A.21.21,0,0,0,62,9.41l-.65-.93s0,0-.06,0a2.55,2.55,0,0,0-.3.26,2.72,2.72,0,0,0-.27.3,1.15,1.15,0,0,0-.22.4c0,.11,0,.16.11.16h.34a0,0,0,0,1,0,0V9.7a0,0,0,0,1,0,0h-1.2V9.61s0,0,0,0H60s.07,0,.1-.08a1.62,1.62,0,0,1,.1-.18,2.85,2.85,0,0,1,.53-.6,4.27,4.27,0,0,1,.42-.36.05.05,0,0,0,0-.08l-.42-.56-.43-.53a.33.33,0,0,0-.26-.13h-.19a0,0,0,0,1,0,0v-.1s0,0,0,0h1.4s0,0,0,0V7a0,0,0,0,1,0,0H61c-.05,0-.07,0-.07.06a.26.26,0,0,0,.08.16c.14.21.32.45.52.73,0,0,0,0,.06,0a2.54,2.54,0,0,0,.5-.56.61.61,0,0,0,.13-.29c0-.07,0-.11-.12-.11h-.3a0,0,0,0,1,0,0v-.1s0,0,0,0h1.15a0,0,0,0,1,0,0V7s0,0,0,0h-.24s-.1,0-.15.12a4.57,4.57,0,0,1-.55.65l-.34.3a.06.06,0,0,0,0,.09l.68.95a1.64,1.64,0,0,0,.19.24c.1.12.18.18.23.18H63s0,0,0,0Z"/><path class="cls-1" d="M67.71,8.63a1,1,0,0,1-.35.8,1.61,1.61,0,0,1-1.08.34l-.49,0H64.71a0,0,0,0,1,0,0V9.6a0,0,0,0,1,0,0h.43s.08,0,.08-.11,0-.34,0-.94,0-.93,0-1V6.27c0-.39-.06-.58-.12-.58H64.6s0,0,0,0v-.1a0,0,0,0,1,0,0h1.92a1.46,1.46,0,0,1,.4.07,1,1,0,0,1,.41.29.83.83,0,0,1,.19.56.94.94,0,0,1-.09.43,2.17,2.17,0,0,1-.16.25,1.58,1.58,0,0,1-.48.39s-.05,0,0,0a1.66,1.66,0,0,1,.63.36A.91.91,0,0,1,67.71,8.63Zm-.67-2A.94.94,0,0,0,66.76,6a1,1,0,0,0-.76-.3,1.31,1.31,0,0,0-.27,0,.07.07,0,0,0-.06.06V7.39s0,.06,0,.06h.64l.22,0a.09.09,0,0,0,.08,0,.65.65,0,0,0,.29-.3A1,1,0,0,0,67,6.68Zm.14,2A1,1,0,0,0,66.89,8a1.46,1.46,0,0,0-1.08-.4.22.22,0,0,0-.12,0s0,0,0,.06V9c0,.32,0,.49.11.52a1.48,1.48,0,0,0,.5.07.89.89,0,0,0,.63-.21A.91.91,0,0,0,67.18,8.71Z"/><path class="cls-1" d="M70.63,9.31v0a1,1,0,0,1-.17.15,2,2,0,0,1-.31.17,1.72,1.72,0,0,1-.68.14,1.18,1.18,0,0,1-.88-.33,1.32,1.32,0,0,1-.39-1,3,3,0,0,1,0-.6,1.42,1.42,0,0,1,.38-.73,1.06,1.06,0,0,1,.79-.32.82.82,0,0,1,.37.07,3.07,3.07,0,0,1,.36.23,1.15,1.15,0,0,1,.4.44.37.37,0,0,1,0,.09s0,.05-.06.06a5.54,5.54,0,0,1-.69.15,6.15,6.15,0,0,1-.88.12h-.3s0,.05,0,.15a1.33,1.33,0,0,0,.47,1.05,1.26,1.26,0,0,0,.84.22,1.61,1.61,0,0,0,.48-.06.48.48,0,0,0,.19-.1h0l0,0S70.63,9.3,70.63,9.31Zm-.58-1.67a.27.27,0,0,0,0-.08,1.17,1.17,0,0,0-.34-.39A.72.72,0,0,0,69.21,7a.5.5,0,0,0-.38.24,1.79,1.79,0,0,0-.14.28,1.07,1.07,0,0,0-.08.31s0,0,0,0l.54,0A3.08,3.08,0,0,0,70,7.7.06.06,0,0,0,70.05,7.64Z"/><path class="cls-1" d="M73.46,9.53a.08.08,0,0,1,0,0,1.8,1.8,0,0,1-.26.23l0,0a.55.55,0,0,1-.37-.17,1,1,0,0,1-.25-.38s0,0,0,0a1.4,1.4,0,0,1-.18.18l-.19.16a1.23,1.23,0,0,1-.56.17.57.57,0,0,1-.35-.08A.46.46,0,0,1,71,9.3a1.08,1.08,0,0,1,.19-.58,1.13,1.13,0,0,1,.43-.32,3.25,3.25,0,0,1,.85-.24.09.09,0,0,0,0-.07c0-.32,0-.54,0-.65a.35.35,0,0,0-.15-.25A.67.67,0,0,0,72,7.11a1,1,0,0,0-.45.08s-.07.07-.06.11v.09a.48.48,0,0,1-.07.24.33.33,0,0,1-.27.18c-.07,0-.11,0-.11-.15a.52.52,0,0,1,.15-.3,1.17,1.17,0,0,1,.3-.29,1.66,1.66,0,0,1,.84-.18.7.7,0,0,1,.5.15.59.59,0,0,1,.12.44q0,.25,0,.75c0,.33,0,.52,0,.56a.73.73,0,0,0,.16.5.62.62,0,0,0,.36.2S73.46,9.52,73.46,9.53Zm-1-1.17s0-.06,0-.06a1.35,1.35,0,0,0-.54.14c-.34.15-.5.35-.5.61a.39.39,0,0,0,.11.33.52.52,0,0,0,.31.08.86.86,0,0,0,.55-.25.26.26,0,0,0,.09-.16Q72.49,8.68,72.49,8.36Z"/><path class="cls-1" d="M76.69,9.61a.05.05,0,0,1,0,0l-.2.09-.1.06-.05,0-.09-.05A.79.79,0,0,1,76,9.31s0,0-.06,0l-.58.36a1.29,1.29,0,0,1-.64.11.48.48,0,0,1-.42-.22.81.81,0,0,1-.15-.49V7.83c0-.52,0-.79-.12-.79h-.38s0,0,0,0v-.1s0,0,0,0h.71l.2,0s.06,0,.06.09,0,.32,0,1,0,1,0,1a.53.53,0,0,0,.13.41.62.62,0,0,0,.38.1,2.51,2.51,0,0,0,.85-.26s0,0,0-.05V7.49c0-.29,0-.43-.13-.43h-.37a0,0,0,0,1,0,0v-.1a0,0,0,0,1,0,0h.4l.33,0,.18,0s0,0,0,.09,0,.34,0,1v1a.68.68,0,0,0,.28.62A.05.05,0,0,1,76.69,9.61Z"/><path class="cls-1" d="M79.09,9.36a.09.09,0,0,1,0,.07,1.59,1.59,0,0,1-.33.2,1.55,1.55,0,0,1-.66.16.58.58,0,0,1-.65-.66s0-.26,0-.7,0-.66,0-.68,0-.12,0-.27,0-.24,0-.25a.1.1,0,0,0-.06-.09L77.13,7a.07.07,0,0,1,0-.07s0,0,0-.08l.67-.56a.13.13,0,0,1,.08,0s0,0,0,.09a2,2,0,0,0,0,.42c0,.07,0,.1,0,.1h.54l.53,0s.06,0,0,.06a.49.49,0,0,1,0,.18.06.06,0,0,1-.06,0h-1s0,0,0,0V8.92a.76.76,0,0,0,.08.39c.06.1.22.15.47.15a1.7,1.7,0,0,0,.5-.1l.14-.06S79.09,9.32,79.09,9.36Z"/><path class="cls-1" d="M82.16,7s0,0,0,0H82a.1.1,0,0,0-.09.06,9.47,9.47,0,0,0-.41,1.07c-.07.21-.31.81-.71,1.79-.24.54-.44,1-.6,1.25a.19.19,0,0,1-.09,0l-.36.06-.28,0s-.06,0-.06,0,0,0,.06-.06a1.48,1.48,0,0,0,.61-.54,4.09,4.09,0,0,0,.58-.92.12.12,0,0,0,0-.11c-.17-.36-.39-.86-.65-1.52-.09-.23-.22-.53-.38-.89,0-.15-.11-.23-.18-.23h-.11s0,0,0,0V6.92s0,0,0,0h1.23s0,0,0,0V7a0,0,0,0,1,0,0h-.39s-.06,0-.06.07l0,.12c0,.07.14.36.35.86.14.34.28.7.44,1.08,0,0,0,0,.06,0a7.23,7.23,0,0,0,.37-1,4,4,0,0,0,.22-.9q0-.24-.12-.24h-.29s0,0,0,0v-.1s0,0,0,0h1.09V7Z"/><path class="cls-1" d="M87.66,9.12a0,0,0,0,1,0,.05,2,2,0,0,1-.78.45,3.24,3.24,0,0,1-1.07.15A2.53,2.53,0,0,1,85,9.66a1.69,1.69,0,0,1-.64-.41,2,2,0,0,1-.51-1.52,2.53,2.53,0,0,1,.29-1.13,2.11,2.11,0,0,1,.72-.77,3,3,0,0,1,1.62-.41c.25,0,.48,0,.68,0a1.83,1.83,0,0,1,.45.09s0,0,0,0a2.49,2.49,0,0,1,0,.26q0,.18,0,.3s0,0,0,0,0,0,0,0a.2.2,0,0,0,0-.08.93.93,0,0,0-.26-.22,2.29,2.29,0,0,0-1-.16,1.73,1.73,0,0,0-1.32.5,2,2,0,0,0-.56,1.45,1.92,1.92,0,0,0,.59,1.49,1.61,1.61,0,0,0,.6.37,2.37,2.37,0,0,0,.73.09,1.58,1.58,0,0,0,.66-.15A1.09,1.09,0,0,0,87.36,9a.63.63,0,0,0,.11-.26s0-.06,0-.06,0,0,0,0a.68.68,0,0,0,.07.2Z"/><path class="cls-1" d="M89.63,9.71s0,0,0,0H88s0,0,0,0V9.6s0,0,0,0h.51a.06.06,0,0,0,.07-.07V6q0-.69-.12-.69H88.1a0,0,0,0,1,0,0V5.18s0,0,0,0h.24a1.88,1.88,0,0,0,.46-.06L89,5s0,0,0,.09,0,.63,0,1.86,0,1.86,0,1.9c0,.47,0,.7.12.7h.45s0,0,0,0Z"/><path class="cls-1" d="M91.33,9.7s0,0,0,0H89.81s0,0,0,0V9.6s0,0,0,0h.46s.06,0,.06-.07V7.92c0-.33,0-.52,0-.59S90.23,7,90.15,7h-.31s0,0,0,0V6.9s0,0,0,0H90l.56,0,.19,0s.07,0,.07.1l0,.92c0,.62,0,.94,0,1q0,.75.15.75h.38a0,0,0,0,1,0,0Zm-.51-3.95a.45.45,0,0,1-.39.4c-.14,0-.21-.06-.21-.2a.42.42,0,0,1,.41-.4A.18.18,0,0,1,90.82,5.75Z"/><path class="cls-1" d="M94.77,9.7s0,0,0,0H93.43s0,0,0,0V9.6s0,0,0,0h.33a.06.06,0,0,0,.06-.05c0-.22,0-.71,0-1.46a1,1,0,0,0-.16-.67.66.66,0,0,0-.49-.16,1.22,1.22,0,0,0-.69.19.1.1,0,0,0,0,.08c0,.09,0,.56,0,1.42,0,.43,0,.65.1.65H93a0,0,0,0,1,0,0v.11a0,0,0,0,1,0,0H91.55a0,0,0,0,1,0,0V9.6s0,0,0,0H92s0,0,0-.06,0-.34,0-1,0-1,0-1c0-.31,0-.46-.1-.46h-.38s0,0,0,0v-.1s0,0,0,0h.8l.09,0s0,0,0,.07a1.54,1.54,0,0,0,0,.17,1.49,1.49,0,0,0,0,.17c0,.06,0,.08,0,0A2.29,2.29,0,0,1,93,7a1.14,1.14,0,0,1,.45-.11.79.79,0,0,1,.56.22,1.19,1.19,0,0,1,.24.86c0,.14,0,.38,0,.71s0,.5,0,.49c0,.3,0,.46.06.46h.43s0,0,0,0Z"/><path class="cls-1" d="M96.48,9.7s0,0,0,0H95a0,0,0,0,1,0,0V9.6s0,0,0,0h.45s.06,0,.06-.07,0-.26,0-.76V7.92c0-.33,0-.52,0-.59S95.38,7,95.29,7H95s0,0,0,0V6.9s0,0,0,0h.19l.56,0,.18,0s.07,0,.07.1,0,.31,0,.92,0,.94,0,1q0,.75.15.75h.38a0,0,0,0,1,0,0ZM96,5.75a.36.36,0,0,1-.15.29.33.33,0,0,1-.24.11c-.14,0-.2-.06-.2-.2a.4.4,0,0,1,.1-.25.37.37,0,0,1,.3-.15C95.9,5.55,96,5.62,96,5.75Z"/><path class="cls-1" d="M99.24,9.22s-.06.09-.16.17A1.71,1.71,0,0,1,98,9.78a1.15,1.15,0,0,1-.54-.11,1.32,1.32,0,0,1-.52-.55,1.61,1.61,0,0,1-.18-.8,2.23,2.23,0,0,1,.08-.6,1.15,1.15,0,0,1,.38-.62,1.27,1.27,0,0,1,.86-.27,1.16,1.16,0,0,1,.82.32.48.48,0,0,1,.18.32c0,.09,0,.14-.12.14a.47.47,0,0,1-.32-.16.75.75,0,0,1-.2-.33S98.38,7,98.3,7l-.24,0L97.8,7a.72.72,0,0,0-.41.22,1.29,1.29,0,0,0-.25.87,1.44,1.44,0,0,0,.41,1,.86.86,0,0,0,.44.24,2.12,2.12,0,0,0,.42,0,1.09,1.09,0,0,0,.66-.19l.09-.06h0A.15.15,0,0,1,99.24,9.22Z"/><path class="cls-1" d="M19.75,30.33c.71,4.29,1.1,8.8,1.27,11.14a25.1,25.1,0,0,0,.06,3.62,85.39,85.39,0,0,1,2.37-12.61c1.54.9,3.63,2.06,4.33,2.39,3.87,1.81,9,4.77,18.06,3.86a23.61,23.61,0,0,0,4-.84,12.57,12.57,0,0,0,1.54-.57A9.44,9.44,0,0,0,53,36.4a3,3,0,0,0,1.5,0c.78-.17.85-.6.7-.75-.37-.37-1.12,0-1.12,0a6.1,6.1,0,0,0-1,.62A26.47,26.47,0,0,1,49.81,35c-16-6.5-17.54-22.7-17.78-24.42C31,3.37,27.56.1,27.53.06s0-.07-.09,0a.06.06,0,0,0-.05.06,17.23,17.23,0,0,1,.53,11.75c-1.22,3.84-3.27,8.72-4.14,12-.75,2.86-1.1,5.44-1.53,7.71l-1.1-.63a65,65,0,0,0-.59-8.27c-1.44-8.73-.6-11.48-.26-13,.05-.24.22-.69.13-.73s-.32.29-.45.58A34.34,34.34,0,0,0,17.5,18a19,19,0,0,1-3.26,8.81c-1-.59-3.71-2-4.14-2.23a10.8,10.8,0,0,0-5.66-1.41c-.24,0-3.16.16-4.08,2.13a3.24,3.24,0,0,0-.32,2A4.85,4.85,0,0,0,3.15,31c3.3,1.53,7.51.17,8.48-.22a10.46,10.46,0,0,0,4-2.85m-3.22.68c-.55.51-4.44,2.92-8,2.2C4,30.76,1,30.14.37,27.62a3.1,3.1,0,0,1,0-1.46c.23-1,1-2,2.94-2.5C4,23.47,6.39,23,9.89,24.83c.71.37,2.81,1.38,3.48,1.8.17.1.48.25.72.39A14.68,14.68,0,0,1,12.41,28.63Zm3.39-.86a11,11,0,0,0,2.43-4,43.32,43.32,0,0,1,1.47,6.31L19.59,30m1.56,9.37c0-.76,0-1.41,0-1.67,0,0,.14-2.85,0-6.54l1.05.61A75.14,75.14,0,0,0,21.15,39.36Zm30.13-2.12a12.58,12.58,0,0,1-2,.66A29.86,29.86,0,0,1,35,37.18a63.65,63.65,0,0,1-11.31-4.86l-.17-.1a64.31,64.31,0,0,1,6.64-16.34C35.27,33.07,45.83,34.23,49.64,35.5a22.57,22.57,0,0,0,3.29.88A12.81,12.81,0,0,1,51.28,37.24Zm3.28-.93a2.59,2.59,0,0,1-1.35,0,3,3,0,0,1,1.25-.63C55.12,35.58,55.52,36,54.56,36.31Z"/><path class="cls-1" d="M58.23,16.43c.09,0,.22.14.4.44a2.07,2.07,0,0,1,.15.61.23.23,0,0,1-.07.14c-.33.36-.78.9-1.36,1.62l.93-.11a5.26,5.26,0,0,0,1-.16l.43,0a.75.75,0,0,1,.36.13c.16.17.25.28.25.34s0,.11-.06.11c-1.11.07-2.34.17-3.67.29v1.47l1.1-.13c.3-.05.53-.1.69-.14l.33-.06a.86.86,0,0,1,.38.16c.15.16.23.27.23.33s0,.09,0,.09c-.82.06-1.72.14-2.68.25v1.42h.12c.8-.06,1.45-.11,1.93-.16s.77-.1,1-.16l.44-.06a.69.69,0,0,1,.39.16.75.75,0,0,1,.22.33c0,.06,0,.09-.05.09-1.3.08-2.74.18-4.31.31l.15.19a.87.87,0,0,1,.32.52.38.38,0,0,1-.07.22c0,.13-.15.39-.31.76a26.27,26.27,0,0,0,3.9-.51.54.54,0,0,1,.26-.09,1.31,1.31,0,0,1,.51.3c.27.18.4.29.4.34s-.06.2-.19.2c-1.22.06-2.73.15-4.53.28.26.26.6.57,1,.92a17.81,17.81,0,0,0,2.37,1.73,6.47,6.47,0,0,0,2.15.53c.07,0,.11.05.11.15s0,.17-.11.17c-.35,0-.81.06-1.37.12a5.65,5.65,0,0,1-.71.09.42.42,0,0,1-.3-.13c-.55-.57-1.27-1.24-2.16-2-.49-.46-1-1-1.52-1.49a5.53,5.53,0,0,1-.87,1.51A6.72,6.72,0,0,1,53.5,29a10.33,10.33,0,0,1-1.76.86,2.07,2.07,0,0,1-.65.18s0,0,0-.05a.12.12,0,0,1,.08-.12,13.53,13.53,0,0,0,2.21-1.22,6.73,6.73,0,0,0,1.34-1.14A6,6,0,0,0,55.61,26c-1.89.16-2.92.26-3.09.31a1.55,1.55,0,0,1-.29,0,1.13,1.13,0,0,1-.58-.29c-.13-.11-.2-.2-.2-.26s.09-.15.25-.15c.66,0,2-.07,4.09-.2A7.26,7.26,0,0,0,56,23.7c-1.58.1-2.55.17-2.91.22a1.69,1.69,0,0,1-.32,0,.93.93,0,0,1-.4-.17c-.14-.15-.21-.24-.21-.29s0-.06.09-.06c1.3-.06,2.21-.11,2.72-.15s.72,0,1-.05V21.82c-.95.08-1.56.15-1.82.19L54,22a1,1,0,0,1-.4-.17c-.14-.15-.21-.24-.21-.29s0-.06.08-.06l1.78-.12.76-.07V19.85h0c-1.45.12-2.35.22-2.69.29a1.77,1.77,0,0,1-.34,0,.81.81,0,0,1-.35-.17c-.17-.15-.25-.25-.25-.29s0-.06.11-.06c1.19-.06,2-.11,2.48-.16l1.57-.15.37,0,.05-.1A7.08,7.08,0,0,0,57.6,18a5.06,5.06,0,0,0,.49-1.43A.13.13,0,0,1,58.23,16.43ZM53.89,17a.53.53,0,0,1,.2.07,9.45,9.45,0,0,1,1.22.79c.19.13.29.23.29.31a2.92,2.92,0,0,1-.08.49c-.11.23-.21.35-.28.35a.25.25,0,0,1-.21-.15,8.63,8.63,0,0,0-1.09-1.61.57.57,0,0,1-.11-.19A.05.05,0,0,1,53.89,17Z"/><path class="cls-1" d="M68.76,16.46s.19.16.42.49a2.22,2.22,0,0,1,.27.64.42.42,0,0,1-.11.25A3.78,3.78,0,0,0,68.52,19c-.24.38-.46.72-.68,1v9.85c0,.12,0,.17-.16.17s-.21-.18-.46-.53a1.36,1.36,0,0,1-.2-.63,3.16,3.16,0,0,1,.16-.74,6.2,6.2,0,0,0,.14-1.41V20.78c-.19.21-.37.42-.51.61a16.42,16.42,0,0,1-2.1,1.92.31.31,0,0,1-.21.13.05.05,0,0,1-.06-.06c0-.05,0-.09.13-.13a17.84,17.84,0,0,0,1.92-2.18,14.92,14.92,0,0,0,1.76-2.76,4,4,0,0,0,.45-1.74C68.7,16.5,68.72,16.46,68.76,16.46Zm7,5.64a1.54,1.54,0,0,1,.47.28q.33.26.33.3c0,.08,0,.12-.11.12-1,.07-2.32.18-3.84.35v4.52h0c.65,0,1.19-.09,1.6-.13s.66-.07.9-.11a2.05,2.05,0,0,1,.39-.06.62.62,0,0,1,.35.16c.17.12.25.22.25.27s0,.12-.08.12l-3.84.29c-1.36.08-2.19.14-2.49.19a1.37,1.37,0,0,1-.3,0,.73.73,0,0,1-.36-.18c-.17-.13-.25-.21-.25-.25s0-.09.11-.09c1.1-.05,1.85-.09,2.27-.13l.91-.07V23.19l-.15,0c-1.61.15-2.47.25-2.6.3a.93.93,0,0,1-.24,0,.82.82,0,0,1-.51-.27c-.16-.08-.23-.16-.23-.23s.08-.2.25-.2q.76,0,3.48-.18V18.81A8,8,0,0,0,72,17.24a3.13,3.13,0,0,1-.19-.67.1.1,0,0,1,.11-.11c.06,0,.24.15.52.46s.47.5.47.61a2.37,2.37,0,0,1-.11.61,15.08,15.08,0,0,0-.13,2.16v2.35a13.82,13.82,0,0,0,2.88-.49A.83.83,0,0,1,75.78,22.1Z"/><path class="cls-1" d="M81.14,16.52a1.65,1.65,0,0,1,.37.43,1.39,1.39,0,0,1,.26.58.42.42,0,0,1-.08.22,17.58,17.58,0,0,0-.55,2.62c0,.28-.08.54-.13.77l1.48-.25a7.31,7.31,0,0,0,.06-.85s0-.06.13-.06.15.13.29.39a1.58,1.58,0,0,1,.27.57,1,1,0,0,1-.14.35,15.29,15.29,0,0,0-.39,1.52A20.32,20.32,0,0,1,82,25.16l-.18.43a4,4,0,0,1,.65.66c.12.1.19.5.19,1.18,0,0,0,.05-.08.05a.23.23,0,0,1-.17-.11c-.26-.4-.54-.8-.84-1.19a9,9,0,0,1-1.11,1.58A12.51,12.51,0,0,1,79,29.22a1.3,1.3,0,0,1-.52.27s-.06,0-.06-.09,0-.11.14-.16A16.71,16.71,0,0,0,80,27.63a7.87,7.87,0,0,0,1.14-1.8l0-.06a7.26,7.26,0,0,0-1.14-1,.32.32,0,0,1-.13-.26,3.86,3.86,0,0,1,0-.5,16.92,16.92,0,0,0,.53-2.36l-.31.09c-.34.08-.65.17-1,.26a.27.27,0,0,1-.14.06.9.9,0,0,1-.47-.22q-.33-.24-.33-.36s0-.05.11-.06c.56,0,1-.07,1.41-.13l.75-.12c.08-.56.16-1.14.23-1.74a23.61,23.61,0,0,0,.29-2.84C81.1,16.56,81.12,16.52,81.14,16.52Zm1.31,4.77-1.52.3c-.17,1-.29,1.68-.39,2.16a3,3,0,0,0-.07.65.4.4,0,0,0,.14.26l.83.6a14.58,14.58,0,0,0,.76-2.47C82.31,22.21,82.4,21.71,82.45,21.29Zm7.06,1.63a.77.77,0,0,1,.4.19q.21.18.21.27t-.06.12l-3.28.27v1.49c.28,0,.6-.07.94-.1a2.81,2.81,0,0,0,.49-.11h.14a1.07,1.07,0,0,1,.47.16c.22.16.33.26.33.31a.11.11,0,0,1-.08.11l-2.29.15v2.14c.59.33,1.11.59,1.57.8a11.3,11.3,0,0,0,2.38.37c.07,0,.11.05.11.15s0,.17-.11.17c-.33,0-.77.09-1.31.16a4.85,4.85,0,0,1-.65.11.65.65,0,0,1-.36-.12c-.67-.45-1.51-1-2.55-1.57-.56-.37-1.16-.75-1.79-1.14a10.34,10.34,0,0,1-1,1.43,18.26,18.26,0,0,1-1.35,1.44c-.07.11-.11.16-.14.16s0-.05,0-.15,0-.07.11-.11a13.86,13.86,0,0,0,1.18-1.7,11.15,11.15,0,0,0,.81-1.68A5.67,5.67,0,0,0,84,24.86c0-.09,0-.14.06-.14s.17.13.37.39a1,1,0,0,1,.24.51.29.29,0,0,1-.06.21,5.39,5.39,0,0,1-.3.52l-.07.1c.38.24.87.55,1.49.92l.48.26v-3.8q-1.86.12-2.28.21a1.23,1.23,0,0,1-.29,0,.88.88,0,0,1-.36-.17q-.24-.21-.24-.27c0-.05,0-.08.11-.08,1.06-.06,1.78-.11,2.18-.15l1.41-.12c.64-.05,1.15-.11,1.55-.16a4.47,4.47,0,0,0,.87-.13Zm-4.94-5.5s.11.16.22.48c0,.12.07.25.09.36l2.61-.35a.87.87,0,0,0,.61-.29c.11-.23.2-.35.25-.35s.18.09.32.26.23.27.23.32a.61.61,0,0,1-.13.32.54.54,0,0,0-.17.38l-.37,2.82.18.09c.16.11.25.19.25.23s-.1.12-.29.15l-3.25.35v.35c0,.31-.07.46-.2.46s-.14-.11-.24-.35a1.49,1.49,0,0,1-.17-.64,1.53,1.53,0,0,1,0-.3,7.86,7.86,0,0,0,.08-1.44,16.28,16.28,0,0,0-.12-2.3c0-.29-.06-.45-.06-.49S84.49,17.42,84.57,17.42Zm.53,4.33q2.09-.26,2.67-.39l.3-3L85,18.73a10.92,10.92,0,0,1,.07,1.1V20a14.79,14.79,0,0,0,1.73-.37l.21,0a1.7,1.7,0,0,1,.27.18c.15.12.22.21.22.26s-.06.07-.2.1c-.82.1-1.56.19-2.21.29C85.09,20.93,85.1,21.37,85.1,21.75Z"/><path class="cls-1" d="M93.71,18.17c.05,0,.14.17.28.5a3.44,3.44,0,0,1,.14.7l2-.41a.38.38,0,0,0,.32-.13c.1-.19.16-.28.18-.28a.72.72,0,0,1,.4.19c.18.14.27.23.27.28s-.08.2-.24.36A1.43,1.43,0,0,0,97,20c-.07,1.28-.11,2.43-.13,3.46a22,22,0,0,1-.18,2.75c-.06.48-.13.71-.19.71s-.19-.13-.33-.39A1.4,1.4,0,0,1,96,26a.15.15,0,0,1,0-.07l-1.72.29v.62c0,.3-.06.44-.17.44s-.13-.1-.24-.32a1.32,1.32,0,0,1-.2-.64,4.39,4.39,0,0,1,0-.55c0-.45.07-1.42.08-2.93q0-2.52-.12-3.78c0-.49-.06-.77-.06-.83S93.64,18.17,93.71,18.17Zm.56,7.57a9.59,9.59,0,0,0,1.35-.26l.17-.06a1,1,0,0,1,.27.2l0,0a6.32,6.32,0,0,0,.19-1.35c.11-2.33.17-3.95.19-4.87l-2.29.36c0,.28,0,.58,0,.89,0,.6,0,1.19,0,1.76a7.52,7.52,0,0,0,1.05-.29l.14-.05a1.1,1.1,0,0,1,.31.18c.12.13.18.21.18.26s0,.07-.11.09l-1.57.24C94.25,23.91,94.26,24.89,94.27,25.74ZM103.52,19a.86.86,0,0,1,.38.16.81.81,0,0,1,.23.33c0,.08,0,.12,0,.12-1,.07-2.14.16-3.35.28V22l.33,0,1.43-.2a5.1,5.1,0,0,0,.8-.18,2.44,2.44,0,0,1,.32-.07.87.87,0,0,1,.4.16c.14.17.21.28.21.34s0,.08-.06.08l-2.39.24c.29.25.43.42.43.52a.94.94,0,0,1-.09.36.68.68,0,0,0-.11.34v.64l.49-.06a4.71,4.71,0,0,0,.83-.16,1.75,1.75,0,0,1,.34-.07.8.8,0,0,1,.4.16q.21.24.21.33c0,.08,0,.12,0,.12-.71.05-1.44.11-2.22.19V28.5a4.26,4.26,0,0,1-.11,1.06q-.11.48-.24.48t-.21-.18c-.55-.69-1.08-1.3-1.56-1.84a.46.46,0,0,1-.06-.22s0-.05.06-.05a3,3,0,0,1,.66.4,3.53,3.53,0,0,0,.75.5c.14,0,.23-.14.25-.41V24.75q-.47,0-.93.12c-1.24.11-2,.2-2.32.27a.79.79,0,0,1-.24.05.86.86,0,0,1-.4-.18c-.14-.14-.21-.24-.21-.29s0-.06.12-.06l2.08-.16,1.36-.14.52-.08a8.22,8.22,0,0,0-.19-1.64,1.65,1.65,0,0,0-.09-.22l-.52.06c-1.21.12-2,.2-2.22.26a.79.79,0,0,1-.25.06,1.22,1.22,0,0,1-.38-.17c-.15-.14-.23-.24-.23-.3s0,0,.11,0c1-.07,1.67-.13,2-.18l.46-.06V19.92c-1.06.1-1.73.17-2,.23l-.23,0a.81.81,0,0,1-.39-.17c-.15-.15-.22-.25-.22-.29s0-.06.11-.06c1-.06,1.67-.11,2-.15l.7-.07v-.89a8.35,8.35,0,0,0-.13-1.38,4.05,4.05,0,0,1-.12-.6c0-.07,0-.11.08-.11s.22.14.5.42.41.43.41.54a1.77,1.77,0,0,1-.14.54,12,12,0,0,0-.09,1.43h.11c.61-.1,1.12-.16,1.5-.2a4.5,4.5,0,0,0,.78-.15A2.06,2.06,0,0,1,103.52,19ZM98.83,25.1a.33.33,0,0,1,.13.06,6,6,0,0,1,.83.84c.13.14.2.24.2.32a2.4,2.4,0,0,1-.09.5c-.1.23-.19.34-.27.34s-.1-.05-.14-.16a8.56,8.56,0,0,0-.66-1.65.71.71,0,0,1-.06-.19A.05.05,0,0,1,98.83,25.1Z"/><path class="cls-1" d="M112.37,16.43a2.23,2.23,0,0,1,.58.49c.35.33.52.56.52.67a2.54,2.54,0,0,1-.13.66,14.6,14.6,0,0,0-.17,2.37v1.5l3.34-.28a.6.6,0,0,0,.52-.36c.09-.15.17-.22.23-.22a1.1,1.1,0,0,1,.39.25q.36.3.36.39c0,.07-.09.15-.25.26a1.44,1.44,0,0,0-.18.66c-.19,3-.35,4.93-.46,5.84a9.32,9.32,0,0,1-.3,1.49c-.1.28-.18.42-.22.42s-.09,0-.13-.1c-.7-.79-1.33-1.52-1.89-2.2a.26.26,0,0,1,0-.15s0-.05,0-.05a.37.37,0,0,1,.15.05c.43.33.85.64,1.27.91a.5.5,0,0,0,.29.11c.1,0,.16-.1.2-.32a24.08,24.08,0,0,0,.26-2.56c.09-1,.16-2.35.19-4l-7.72.78c0,.29,0,.62,0,1q.06,3.6.06,5.85c0,.39-.08.58-.25.58s-.18-.14-.3-.42a1.36,1.36,0,0,1-.25-.74,2.27,2.27,0,0,1,.07-.53,27.7,27.7,0,0,0,.11-2.83c0-1.72,0-3-.14-3.84-.07-.49-.1-.76-.1-.83s0-.12.14-.12.17.2.3.6a2.64,2.64,0,0,1,.2.71l3.45-.33V19a10.16,10.16,0,0,0-.14-1.7,4.47,4.47,0,0,1-.16-.74C112.26,16.46,112.29,16.43,112.37,16.43Zm-2.93,1.89a.34.34,0,0,1,.19.1,17.58,17.58,0,0,1,1.48,1.33,1,1,0,0,1,.24.55,2.59,2.59,0,0,1-.07.62c0,.15-.09.22-.18.22s-.13-.09-.22-.26A14.56,14.56,0,0,0,109.69,19a1.44,1.44,0,0,1-.31-.61A.05.05,0,0,1,109.44,18.32Zm1.77,5.32c.07,0,.18.19.33.56a2.3,2.3,0,0,1,.1.33l2.08-.25a.87.87,0,0,0,.61-.35c.14-.19.24-.29.3-.29s.16.08.28.24.28.26.28.32a.56.56,0,0,1-.2.32.67.67,0,0,0-.16.4l-.17,1.62a1,1,0,0,1,.28.19c.16.1.25.18.25.23s-.1.06-.29.07c-1.16.12-2.21.24-3.15.37v.16a4.74,4.74,0,0,1-.07.74.08.08,0,0,1-.09.09c-.08,0-.17-.11-.29-.32a2.59,2.59,0,0,1-.09-.53v-.27a8.54,8.54,0,0,0,.07-1.27c0-.47,0-1-.07-1.48s-.06-.67-.06-.76S111.17,23.65,111.21,23.64Zm.52,3.31c1.23-.14,2-.26,2.45-.35l.14-2-2.61.38v.09C111.71,25.24,111.72,25.86,111.73,27Zm4.42-9.42c.12,0,.25.16.42.46a2.32,2.32,0,0,1,.19.71c0,.05,0,.1-.12.17-.42.44-1,1.13-1.87,2.07-.13.17-.25.26-.38.26s-.17-.05-.17-.15a.3.3,0,0,1,.13-.24,10,10,0,0,0,1-1.46,5.36,5.36,0,0,0,.62-1.67A.23.23,0,0,1,116.15,17.53Z"/><path class="cls-1" d="M132.27,22.6a1.35,1.35,0,0,1,.47.23c.22.18.33.3.33.35s0,.12-.08.12c-1.27,0-2.81.12-4.62.21v1.21L130,24.6a.32.32,0,0,0,.26-.13c.12-.18.2-.27.23-.27a.56.56,0,0,1,.35.19c.21.11.32.2.32.27s-.09.2-.26.37a1.1,1.1,0,0,0-.16.59c0,.81,0,1.53-.05,2.17s-.06,1.31-.11,1.73-.09.47-.14.47-.2-.14-.32-.4a1.52,1.52,0,0,1-.12-.51l-.32,0-5,.34v.22c0,.31-.06.46-.19.46s-.16-.12-.27-.35a1.37,1.37,0,0,1-.15-.64,1.47,1.47,0,0,1,0-.27,11.86,11.86,0,0,0,.09-1.63,18.7,18.7,0,0,0-.13-2.49,5.45,5.45,0,0,1,0-.55s0-.06.11-.06.12.17.22.51a2.28,2.28,0,0,1,.1.38l1.69-.12c.05-.36.08-.77.1-1.24-2.37.16-3.65.26-3.84.31a2.61,2.61,0,0,1-.4,0,1.15,1.15,0,0,1-.51-.23c-.14-.11-.21-.2-.21-.29s.07-.18.22-.18c.81,0,2.59-.05,5.35-.16a48.26,48.26,0,0,0,5.1-.51A1.81,1.81,0,0,1,132.27,22.6Zm-5.61-5.53a1.57,1.57,0,0,1,.32.14c.11.11.18.2.18.27s-.1.07-.28.1l-2.18.16a.15.15,0,0,0,0,.06,1.63,1.63,0,0,1,.15.43.12.12,0,0,1,0,.08c-.06,0-.12.11-.18.26a8.17,8.17,0,0,0,1.37-.22l.17,0a.61.61,0,0,1,.27.13c.08.08.12.13.12.16s0,.08-.14.1l-1,.12a9.47,9.47,0,0,1-.13,1,5,5,0,0,0,.8-.11l.42,0a.45.45,0,0,1,.21.1c.12.09.18.16.18.22s0,.05-.06.06l-1.64.13s0,0,0,0l.09,0a5.62,5.62,0,0,1,1,.51c.15.05.23.1.23.14a1.64,1.64,0,0,1-.07.42c-.08.19-.16.28-.23.28a.22.22,0,0,1-.2-.12,3.87,3.87,0,0,0-.9-1.06.56.56,0,0,1-.12.28,4.34,4.34,0,0,1-.33.56,7.5,7.5,0,0,1-.61.53,1.24,1.24,0,0,1-.33.19.05.05,0,0,1-.06-.06q0-.11.06-.12a3.42,3.42,0,0,0,.57-.58,3,3,0,0,0,.38-.62,2,2,0,0,0,.1-.38l-.42.06a2.53,2.53,0,0,1-.38,0,.67.67,0,0,1-.28-.1c-.07-.08-.11-.13-.11-.16a.06.06,0,0,1,0-.06c.49,0,.91-.08,1.26-.13a.78.78,0,0,1,0-.16,4.76,4.76,0,0,0,.09-.8,4.8,4.8,0,0,1-.56.06,1.52,1.52,0,0,1-.22.27,1.88,1.88,0,0,1-.54.51s0,.05,0,.05,0,0,0-.06v0A6.13,6.13,0,0,0,124,19a7.94,7.94,0,0,0,.34-.86,1.75,1.75,0,0,0,.07-.36l-1.16.12a.53.53,0,0,1,0,.23c0,.28,0,1.52,0,3.71a2.11,2.11,0,0,1,0,.26c1.73-.1,2.83-.19,3.29-.28l.39,0a.79.79,0,0,1,.27.18c.15.09.22.15.22.2s-.1.07-.33.09l-3.85.33a1.59,1.59,0,0,1-.07.38c0,.11,0,.16-.08.16s-.14-.12-.24-.36a1.61,1.61,0,0,1-.12-.54c0-.14,0-.26,0-.38q.06-.56.06-1.95c0-.64,0-1.34-.08-2.09q-.06-.84-.06-1.05t.06-.12c.08,0,.18.2.3.59a1.68,1.68,0,0,1,.07.24c1.66-.15,2.71-.28,3.15-.38ZM124.6,27.35l0-.05a5.76,5.76,0,0,0,1-1,2.2,2.2,0,0,0,.41-1l-1.52.11a8.21,8.21,0,0,1,.08,1.18C124.59,26.86,124.6,27.12,124.6,27.35Zm0,1.6c2.28-.09,3.74-.19,4.35-.27l.49,0a1.48,1.48,0,0,1,.36.17.44.44,0,0,1,.13.09l0-.07a6,6,0,0,0,.1-.86c0-.5.05-.93.07-1.31h0a3.16,3.16,0,0,1-1,.11c-.61,0-1-.09-1.1-.25a1.35,1.35,0,0,1-.17-.8v-.58l-1.32.08a.52.52,0,0,0,0,.11,2.73,2.73,0,0,1-.51,1,3.78,3.78,0,0,1-.47.51c-.2.17-.42.33-.65.51a.47.47,0,0,1-.26.15l0,0C124.62,28,124.63,28.53,124.64,29Zm3.79-1.58a.72.72,0,0,1,.31.1c.12.1.18.17.18.22a.1.1,0,0,1-.08.11c-1.29.18-2.11.3-2.46.37a2.39,2.39,0,0,1-.44.07s-.13,0-.26-.16-.18-.23-.18-.28,0,0,.11-.05a17.32,17.32,0,0,0,2.46-.34A1.86,1.86,0,0,1,128.43,27.37Zm-.56-2.62V23.54c-.37.05-.74.08-1.12.1a11.83,11.83,0,0,1-.12,1.23Zm2.52-5.3a.75.75,0,0,1,.27.16c.13.13.2.23.2.31s0,.07-.11.12l-.83,1a1,1,0,0,1-.21.25l.95.34a.65.65,0,0,1,.31.4,1.72,1.72,0,0,1,.08.44c0,.08,0,.12-.05.12a.63.63,0,0,1-.28-.1l-1.37-.83a5.36,5.36,0,0,1-.54.45,5.84,5.84,0,0,1-1.45.75l-.4.19c-.07,0-.11,0-.11,0a.14.14,0,0,1,.11-.15,13.89,13.89,0,0,0,1.59-1,4.19,4.19,0,0,0,.42-.4,10.86,10.86,0,0,1-1-.64c-.07,0-.1,0-.1-.08s0-.06.05-.06a3.21,3.21,0,0,1,.53.11c.32.11.63.23.91.35a5.07,5.07,0,0,0,.33-.45,4.91,4.91,0,0,0,.39-.58l-.72.09c-.35.05-.68.11-1,.17a1.19,1.19,0,0,1-.25.05.55.55,0,0,1-.29-.11c-.1,0-.15-.1-.15-.16s0,0,.05,0l2.21-.32a.31.31,0,0,0,.24-.16C130.24,19.51,130.32,19.45,130.39,19.45Zm-2.46-2.7s.13.08.29.25a1.19,1.19,0,0,1,.21.32l.8-.16a.82.82,0,0,0,.45-.24c.15-.15.24-.23.27-.23s.11.07.23.22l.21.19s-.06.13-.18.27a.77.77,0,0,0-.15.43,3.28,3.28,0,0,0,.07,1.07.59.59,0,0,0,.33.06,1.35,1.35,0,0,0,.69-.22.6.6,0,0,1,.21-.1.81.81,0,0,1,.3.19c.11.11.16.18.16.22s0,.13-.16.16a8.44,8.44,0,0,1-1.34.22.92.92,0,0,1-.57-.16,4.71,4.71,0,0,1-.16-1.68l-1.28.15c0,.08,0,.18,0,.32a3.32,3.32,0,0,1-.22,1.12,3,3,0,0,1-.64.81,1.26,1.26,0,0,1-.42.28.05.05,0,0,1-.06-.06l.08-.08a2.77,2.77,0,0,0,.71-1.15,5.15,5.15,0,0,0,.11-1.17,3.19,3.19,0,0,0,0-.7c0-.13,0-.21,0-.24S127.85,16.75,127.93,16.75Zm.44,8.38v.61a.81.81,0,0,0,.11.43.6.6,0,0,0,.44.15,2.5,2.5,0,0,0,.69-.09l.34,0a.4.4,0,0,1,.23.08c0-.57,0-1,.06-1.28Z"/><path class="cls-1" d="M143.13,16.43c.09,0,.22.14.4.44a2.07,2.07,0,0,1,.15.61.23.23,0,0,1-.07.14q-.5.54-1.35,1.62l.92-.11a5.38,5.38,0,0,0,1-.16l.42,0a.69.69,0,0,1,.36.13c.17.17.25.28.25.34s0,.11,0,.11c-1.12.07-2.34.17-3.68.29v1.47l1.11-.13.69-.14.33-.06a.84.84,0,0,1,.37.16q.24.24.24.33t-.06.09c-.82.06-1.71.14-2.68.25v1.42h.13l1.93-.16c.42-.05.77-.1,1-.16l.44-.06a.69.69,0,0,1,.39.16.86.86,0,0,1,.22.33q0,.09-.06.09c-1.3.08-2.73.18-4.31.31l.15.19a.87.87,0,0,1,.32.52.32.32,0,0,1-.07.22c0,.13-.15.39-.3.76a26.28,26.28,0,0,0,3.89-.51.54.54,0,0,1,.27-.09,1.46,1.46,0,0,1,.51.3c.27.18.4.29.4.34s-.07.2-.19.2c-1.22.06-2.73.15-4.54.28.27.26.61.57,1,.92a17.18,17.18,0,0,0,2.38,1.73,6.4,6.4,0,0,0,2.14.53c.08,0,.11.05.11.15s0,.17-.11.17c-.35,0-.8.06-1.37.12a5.57,5.57,0,0,1-.7.09.46.46,0,0,1-.31-.13c-.55-.57-1.27-1.24-2.15-2-.5-.46-1-1-1.52-1.49a5.53,5.53,0,0,1-.87,1.51A6.93,6.93,0,0,1,138.4,29a10.28,10.28,0,0,1-1.75.86A2.14,2.14,0,0,1,136,30s0,0,0-.05a.14.14,0,0,1,.09-.12,14,14,0,0,0,2.21-1.22,6.73,6.73,0,0,0,1.34-1.14,6.33,6.33,0,0,0,.91-1.54c-1.89.16-2.92.26-3.1.31a1.46,1.46,0,0,1-.29,0,1.13,1.13,0,0,1-.58-.29c-.13-.11-.19-.2-.19-.26s.08-.15.25-.15c.65,0,2-.07,4.09-.2a7.82,7.82,0,0,0,.22-1.72c-1.58.1-2.56.17-2.92.22a1.61,1.61,0,0,1-.31,0,1,1,0,0,1-.41-.17c-.13-.15-.2-.24-.2-.29s0-.06.08-.06c1.31-.06,2.22-.11,2.72-.15s.73,0,1-.05V21.82c-1,.08-1.57.15-1.82.19l-.2,0a1.16,1.16,0,0,1-.4-.17c-.14-.15-.21-.24-.21-.29s0-.06.09-.06l1.78-.12.76-.07V19.85h0c-1.46.12-2.36.22-2.7.29a1.68,1.68,0,0,1-.33,0,.88.88,0,0,1-.36-.17c-.16-.15-.25-.25-.25-.29s0-.06.11-.06c1.2-.06,2-.11,2.49-.16l1.56-.15.37,0a.29.29,0,0,1,.06-.1,7.08,7.08,0,0,0,.65-1.25,4.73,4.73,0,0,0,.48-1.43A.15.15,0,0,1,143.13,16.43Zm-4.34.58a.52.52,0,0,1,.21.07,9.33,9.33,0,0,1,1.21.79c.2.13.29.23.29.31a2.14,2.14,0,0,1-.08.49c-.11.23-.2.35-.28.35a.23.23,0,0,1-.2-.15,9.15,9.15,0,0,0-1.09-1.61c-.08-.1-.12-.16-.12-.19A.05.05,0,0,1,138.79,17Z"/><path class="cls-1" d="M154.46,19.4a.69.69,0,0,1,.39.16c.15.12.22.21.22.27s0,.15-.06.15c-.87.07-1.85.15-2.92.26s-1.64.18-1.89.23a.35.35,0,0,1-.19.09.94.94,0,0,1-.4-.23q-.21-.18-.21-.24s0-.05.11-.05c.81-.06,1.38-.13,1.7-.19l1.1-.12,1.23-.16a2.79,2.79,0,0,0,.65-.12Zm-1,1.86a.58.58,0,0,1,.32.13c.16.12.24.2.24.25s0,.14-.06.14q-.81.07-1.74.21a7.07,7.07,0,0,0-1.12.14.4.4,0,0,1-.15,0,.65.65,0,0,1-.32-.16c-.14-.12-.21-.19-.21-.22s0-.09.11-.09a9.68,9.68,0,0,0,1-.1l.66-.1.72-.1a1.54,1.54,0,0,0,.37-.09Zm.11,1.86a.72.72,0,0,1,.32.13c.16.12.24.2.24.25s0,.14-.06.14q-.78.08-1.71.21a8.41,8.41,0,0,0-1.09.14l-.13,0a.94.94,0,0,1-.37-.16c-.12-.11-.18-.19-.18-.22a.07.07,0,0,1,.08-.08l1-.1.64-.11.7-.1a2.11,2.11,0,0,0,.38-.09ZM150.81,25c.05,0,.14.17.28.5a.41.41,0,0,1,0,.19l1.5-.25a.8.8,0,0,0,.6-.29c.14-.23.25-.35.31-.35s.15.09.28.26.27.26.27.32a.5.5,0,0,1-.19.32.67.67,0,0,0-.17.38l-.27,2.05a.72.72,0,0,1,.19.13c.13.09.19.16.19.2s-.06.07-.19.09l-2.29.32v.5c0,.29-.05.43-.14.43s-.17-.1-.29-.32a1.39,1.39,0,0,1-.18-.64.69.69,0,0,1,0-.22,7.7,7.7,0,0,0,.1-1.13,10.58,10.58,0,0,0-.14-2c0-.26-.06-.41-.06-.44S150.74,25,150.81,25Zm.54,3.38c.79-.08,1.35-.15,1.66-.22l.21-2.34-2,.32c0,.35.07.78.08,1.31C151.33,27.78,151.34,28.1,151.35,28.36ZM151.78,17a.38.38,0,0,1,.17.07,7.43,7.43,0,0,1,1,.83.62.62,0,0,1,.18.32,3.51,3.51,0,0,1-.06.5c-.1.23-.19.35-.27.35s-.13-.06-.17-.16a7,7,0,0,0-.79-1.66.71.71,0,0,1-.06-.19S151.74,17,151.78,17Zm5.56-.12s.15.15.29.44a2.19,2.19,0,0,1,.15.52l0,.09a1.62,1.62,0,0,0-.22.35c.23.36.54.79.91,1.3a17.11,17.11,0,0,0,1.72,2.06,3.55,3.55,0,0,0,1.58.63s.06,0,.06.14a.11.11,0,0,1-.12.12c-.28,0-.66.08-1.13.16a3.07,3.07,0,0,1-.58.1.23.23,0,0,1-.21-.16c-.37-.67-.84-1.47-1.39-2.41-.33-.52-.67-1.07-1-1.66-.41.83-.73,1.44-1,1.82a9.68,9.68,0,0,1-1.17,1.44,8.65,8.65,0,0,1-1.05.9,1.92,1.92,0,0,1-.47.33s0,0,0-.14a.16.16,0,0,1,0-.09c.43-.38.8-.71,1.09-1a7.23,7.23,0,0,0,.87-1.18,11.94,11.94,0,0,0,1-1.86,7.5,7.5,0,0,0,.57-1.78C157.24,16.93,157.28,16.89,157.34,16.89Zm2.18,7.89s.17.16.36.48a2.18,2.18,0,0,1,.25.62.83.83,0,0,1-.06.27,2.5,2.5,0,0,0-.47.39,9.77,9.77,0,0,1-1.16,1.16,9.54,9.54,0,0,1-1.62,1.11,14.7,14.7,0,0,1-2.47,1,.86.86,0,0,1-.3.1s-.06-.05-.06-.15,0-.08.08-.11a10.57,10.57,0,0,0,1.52-.76,9.61,9.61,0,0,0,1.66-1.11,7.72,7.72,0,0,0,1.4-1.44,3.42,3.42,0,0,0,.7-1.44C159.35,24.83,159.41,24.78,159.52,24.78Zm-2.24-3.73c.06,0,.15.15.28.43a2,2,0,0,1,.14.53,8.33,8.33,0,0,1-.56.66,5.4,5.4,0,0,1-.87.9,8.52,8.52,0,0,1-1.27.92,1.61,1.61,0,0,1-.4.17c-.06,0-.08,0-.08-.06s0-.07.09-.1a8.11,8.11,0,0,0,1-.84,7.38,7.38,0,0,0,1-1.25,3.26,3.26,0,0,0,.52-1C157.18,21.16,157.23,21.05,157.28,21.05Zm1.08,2s.11.13.23.4a1.8,1.8,0,0,1,.15.5,6.5,6.5,0,0,1-.74.78,9.78,9.78,0,0,1-1.13,1,11.79,11.79,0,0,1-1.66,1,2.65,2.65,0,0,1-.56.23s-.05,0-.05-.06,0-.1.11-.14a10.82,10.82,0,0,0,1.38-1,8,8,0,0,0,1.41-1.36,3.68,3.68,0,0,0,.69-1.18C158.23,23.15,158.28,23.06,158.36,23.06Z"/><path class="cls-1" d="M168.67,16.69c.07,0,.21.1.43.29s.37.36.37.44,0,.1-.11.11a5.85,5.85,0,0,0-.86.38,13.62,13.62,0,0,1-1.85.83,3.33,3.33,0,0,1-.86.22,3.79,3.79,0,0,1,0,.49c0,.42,0,.82,0,1.21l2.05-.25a.75.75,0,0,0,.61-.29c.13-.23.23-.35.3-.35s.16.09.28.27.27.26.27.32a.58.58,0,0,1-.19.32.62.62,0,0,0-.14.37l-.36,2a2.31,2.31,0,0,1,.31.16c.12.09.19.15.19.2s-.08.06-.25.09l-3.27.26a.84.84,0,0,0,0,.1,12.22,12.22,0,0,1-.5,3,6.44,6.44,0,0,1-.77,1.66c-.38.61-.61.91-.69.91s-.05,0-.05,0a.52.52,0,0,1,.06-.22,7,7,0,0,0,.86-1.79,11.93,11.93,0,0,0,.53-2.52,47.19,47.19,0,0,0,.26-5.48,10.93,10.93,0,0,0-.1-1.24,5.67,5.67,0,0,1-.15-.68c0-.1,0-.15.11-.15s.19.19.36.56a4.83,4.83,0,0,1,.28.93,8.84,8.84,0,0,0,1.86-1,2.79,2.79,0,0,0,.91-.88C168.59,16.74,168.63,16.69,168.67,16.69Zm-3.06,6.58c1.3-.08,2.15-.15,2.56-.22l.25-2.24-2.64.29C165.72,21.87,165.67,22.6,165.61,23.27Zm8.2-6.2a1.62,1.62,0,0,1,.48.26c.25.25.37.41.37.47s0,.1-.13.11-.45.17-.86.35c-.65.24-1.3.45-2,.64-.43.1-.72.16-.89.18,0,.77,0,1.6-.07,2.47l2.7-.29a6,6,0,0,0,1.2-.22l.32,0a1.13,1.13,0,0,1,.48.2c.2.16.29.24.29.26s0,.11-.05.12l-2.38.23v8.12c0,.12-.05.17-.16.17s-.2-.18-.46-.53a1.56,1.56,0,0,1-.18-.66,4.24,4.24,0,0,1,.14-.71,7.91,7.91,0,0,0,.11-1.41V21.86l-2,.17a.31.31,0,0,0,0,.1,19.29,19.29,0,0,1-.49,2.88,12.9,12.9,0,0,1-.8,2.46c-.3.58-.67,1.21-1.1,1.88-.07.09-.11.14-.14.14s-.06,0-.06-.08a1.15,1.15,0,0,1,.07-.35,10.12,10.12,0,0,0,.79-1.52,9.32,9.32,0,0,0,.61-1.81,18.24,18.24,0,0,0,.51-2.7q.15-1.49.15-3.75a5.87,5.87,0,0,0-.1-1c0-.37,0-.59,0-.66s0-.11.09-.11a2.76,2.76,0,0,1,.33.52,3.53,3.53,0,0,1,.26.78,10.58,10.58,0,0,0,1.89-.9,2.54,2.54,0,0,0,1-.78C173.73,17.1,173.77,17.07,173.81,17.07Z"/></svg>