<svg id="圖層_1" data-name="圖層 1" xmlns="http://www.w3.org/2000/svg" viewBox="0 0 50 50"><defs><style>.cls-1{fill:#8f3063;}.cls-2{fill:#fff;}</style></defs><rect class="cls-1" y="-0.02" width="50.05" height="50.05"/><g id="TYPE_A" data-name="TYPE A"><path class="cls-2" d="M40.66,23.41c0-7-7-12.71-15.66-12.71S9.34,16.4,9.34,23.41C9.34,29.69,14.91,35,22.44,36c.51.11,1.2.33,1.38.77a3.4,3.4,0,0,1,.05,1.42l-.23,1.34c-.06.39-.31,1.55,1.36.84S34,35,37.31,31.23h0a11.31,11.31,0,0,0,3.35-7.82"/><path class="cls-1" d="M21.82,20h-1.1a.31.31,0,0,0-.31.3v6.83a.3.3,0,0,0,.31.3h1.1a.29.29,0,0,0,.3-.3V20.32a.3.3,0,0,0-.3-.3"/><path class="cls-1" d="M29.38,20h-1.1a.3.3,0,0,0-.3.3v4.06l-3.13-4.22,0,0h0l0,0H23.5a.31.31,0,0,0-.31.3v6.83a.3.3,0,0,0,.31.3h1.09a.3.3,0,0,0,.31-.3v-4L28,27.33a.27.27,0,0,0,.08.07h1.27a.29.29,0,0,0,.3-.3V20.32a.3.3,0,0,0-.3-.3"/><path class="cls-1" d="M19.17,25.75h-3V20.33a.3.3,0,0,0-.3-.31h-1.1a.3.3,0,0,0-.3.31v6.82h0a.3.3,0,0,0,.08.21h0a.3.3,0,0,0,.21.08h4.39a.29.29,0,0,0,.3-.3v-1.1a.29.29,0,0,0-.3-.3"/><path class="cls-1" d="M35.45,21.73a.3.3,0,0,0,.3-.31V20.33a.3.3,0,0,0-.3-.31H31.06a.26.26,0,0,0-.21.09h0a.34.34,0,0,0-.09.22h0v6.82h0a.31.31,0,0,0,.09.21h0a.3.3,0,0,0,.21.08h4.39a.29.29,0,0,0,.3-.3v-1.1a.29.29,0,0,0-.3-.3h-3V24.59h3a.29.29,0,0,0,.3-.3v-1.1a.3.3,0,0,0-.3-.31h-3V21.73Z"/></g></svg>