<svg id="圖層_1" data-name="圖層 1" xmlns="http://www.w3.org/2000/svg" viewBox="0 0 35 35"><defs><style>.cls-1,.cls-10,.cls-11,.cls-2,.cls-3,.cls-4,.cls-5,.cls-7,.cls-8,.cls-9{fill:none;stroke:#8e2e63;}.cls-1,.cls-10,.cls-11,.cls-2,.cls-3,.cls-5,.cls-7,.cls-9{stroke-linecap:round;}.cls-1,.cls-10,.cls-11,.cls-3,.cls-5,.cls-7,.cls-9{stroke-linejoin:round;}.cls-1{stroke-width:0.75px;}.cls-2,.cls-4,.cls-8{stroke-miterlimit:10;}.cls-2{stroke-width:1.04px;}.cls-3{stroke-width:1.16px;}.cls-4{stroke-width:1.16px;}.cls-5{stroke-width:0.91px;}.cls-6{fill:#8e2e63;}.cls-7{stroke-width:1.24px;}.cls-8{stroke-width:1.24px;}.cls-9{stroke-width:0.98px;}.cls-10{stroke-width:0.8px;}.cls-11{stroke-width:0.97px;}</style></defs><path class="cls-1" d="M14.5,22.68a.86.86,0,0,1,.57-.47.78.78,0,0,1,.66.24,1.35,1.35,0,0,0,.85.47c.47,0,.67-.28,1-.49a.74.74,0,0,1,1,.25"/><path class="cls-2" d="M11,25.52a16.54,16.54,0,0,0,4.49.89,2.8,2.8,0,0,0,1,.51"/><path class="cls-2" d="M22.11,25.52a16.54,16.54,0,0,1-4.49.89,2.81,2.81,0,0,1-1,.51"/><path class="cls-2" d="M15.37,29.15a4.07,4.07,0,0,0,2.23,0"/><path class="cls-3" d="M19.91,15.29s4.52-3.24,7.74-.68"/><ellipse class="cls-4" cx="23.52" cy="15.29" rx="1.59" ry="1.4"/><path class="cls-5" d="M19.5,11.83s5.82-3.32,8.44-.49"/><path class="cls-6" d="M25.86,13.72s2-.63,2.05-1.11A1.36,1.36,0,0,1,26.74,14C25.48,14.28,25.86,13.72,25.86,13.72Z"/><path class="cls-6" d="M27.14,14.39s2-.62,2.05-1.1A1.35,1.35,0,0,1,28,14.68C26.76,15,27.14,14.39,27.14,14.39Z"/><path class="cls-7" d="M13.9,15.38s-4.84-3.47-8.29-.73"/><ellipse class="cls-8" cx="10.04" cy="15.38" rx="1.71" ry="1.5"/><path class="cls-9" d="M14.33,11.67s-6.23-3.55-9-.52"/><path class="cls-6" d="M7.52,13.69S5.39,13,5.34,12.51A1.43,1.43,0,0,0,6.58,14C7.93,14.29,7.52,13.69,7.52,13.69Z"/><path class="cls-6" d="M6.15,14.41S4,13.74,4,13.23a1.44,1.44,0,0,0,1.25,1.49C6.56,15,6.15,14.41,6.15,14.41Z"/><path class="cls-10" d="M23.14,30.75s3.71-1.47,6.83-7.16"/><path class="cls-6" d="M31,21.42a12.15,12.15,0,0,0,.17,3.91l-1.4-1.47-2-.24A12.22,12.22,0,0,0,31,21.42Z"/><line class="cls-11" x1="16.75" y1="7.06" x2="16.75" y2="4.38"/><path class="cls-6" d="M16.75,1.45a14.51,14.51,0,0,0,2.3,4.14l-2.3-.83-2.31.83A14.3,14.3,0,0,0,16.75,1.45Z"/><path class="cls-11" d="M20.78,6.72a21.13,21.13,0,0,1,2-2.11"/><path class="cls-6" d="M25.28,3.1A14.19,14.19,0,0,0,23,7.26l-.54-2.39-1.93-1.5A14.89,14.89,0,0,0,25.28,3.1Z"/><path class="cls-11" d="M12.37,7.06a21.13,21.13,0,0,0-2-2.11"/><path class="cls-6" d="M7.87,3.43a14.61,14.61,0,0,0,4.73.28l-1.93,1.5L10.14,7.6A14.64,14.64,0,0,0,7.87,3.43Z"/></svg>